<svg width="22" height="22" viewBox="0 0 22 22" fill="none" xmlns="http://www.w3.org/2000/svg">
<mask id="path-1-inside-1_238_320" fill="white">
<path d="M5.43949 2.83408C5.70916 1.72197 7.29084 1.72197 7.56051 2.83408L8.30252 5.89413C8.3988 6.29118 8.70882 6.6012 9.10587 6.69748L12.1659 7.43949C13.278 7.70916 13.278 9.29084 12.1659 9.56051L9.10587 10.3025C8.70882 10.3988 8.3988 10.7088 8.30252 11.1059L7.56051 14.1659C7.29084 15.278 5.70916 15.278 5.43949 14.1659L4.69748 11.1059C4.6012 10.7088 4.29118 10.3988 3.89413 10.3025L0.834083 9.56051C-0.278027 9.29084 -0.278028 7.70916 0.834082 7.43949L3.89413 6.69748C4.29118 6.6012 4.6012 6.29118 4.69748 5.89413L5.43949 2.83408Z"/>
<path d="M14.3474 13.5133C14.5133 12.8289 15.4867 12.8289 15.6526 13.5133L16.1092 15.3964C16.1685 15.6407 16.3593 15.8315 16.6036 15.8908L18.4867 16.3474C19.1711 16.5133 19.1711 17.4867 18.4867 17.6526L16.6036 18.1092C16.3593 18.1685 16.1685 18.3593 16.1092 18.6036L15.6526 20.4867C15.4867 21.1711 14.5133 21.1711 14.3474 20.4867L13.8908 18.6036C13.8315 18.3593 13.6407 18.1685 13.3964 18.1092L11.5133 17.6526C10.8289 17.4867 10.8289 16.5133 11.5133 16.3474L13.3964 15.8908C13.6407 15.8315 13.8315 15.6407 13.8908 15.3964L14.3474 13.5133Z"/>
<path d="M17.5717 2.71184C17.6806 2.26272 18.3194 2.26272 18.4283 2.71184L18.7279 3.94763C18.7668 4.10798 18.892 4.23318 19.0524 4.27206L20.2882 4.57172C20.7373 4.68062 20.7373 5.31938 20.2882 5.42828L19.0524 5.72794C18.892 5.76682 18.7668 5.89202 18.7279 6.05237L18.4283 7.28816C18.3194 7.73728 17.6806 7.73728 17.5717 7.28816L17.2721 6.05237C17.2332 5.89202 17.108 5.76682 16.9476 5.72794L15.7118 5.42828C15.2627 5.31938 15.2627 4.68062 15.7118 4.57172L16.9476 4.27206C17.108 4.23318 17.2332 4.10798 17.2721 3.94763L17.5717 2.71184Z"/>
<path fill-rule="evenodd" clip-rule="evenodd" d="M18 2.93109L17.7554 3.93972C17.6577 4.34288 17.3429 4.65766 16.9397 4.75542L15.9311 5L16.9397 5.24458C17.3429 5.34234 17.6577 5.65712 17.7554 6.06029L18 7.06891L18.2446 6.06029C18.3423 5.65712 18.6571 5.34234 19.0603 5.24458L20.0689 5L19.0603 4.75542C18.6571 4.65766 18.3423 4.34288 18.2446 3.93972L18 2.93109ZM18.4895 2.38496C18.365 1.87168 17.635 1.87168 17.5105 2.38496L17.1681 3.79729C17.1236 3.98055 16.9805 4.12363 16.7973 4.16807L15.385 4.51054C14.8717 4.635 14.8717 5.365 15.385 5.48947L16.7973 5.83193C16.9805 5.87637 17.1236 6.01945 17.1681 6.20271L17.5105 7.61504C17.635 8.12832 18.365 8.12832 18.4895 7.61504L18.8319 6.20271C18.8764 6.01945 19.0195 5.87637 19.2027 5.83193L20.615 5.48947C21.1283 5.365 21.1283 4.635 20.615 4.51054L19.2027 4.16807C19.0195 4.12363 18.8764 3.98055 18.8319 3.79729L18.4895 2.38496Z"/>
<path d="M6 22C5.44772 22 5 21.5523 5 21C5 20.4477 5.44772 20 6 20C6.55228 20 7 20.4477 7 21C7 21.5523 6.55228 22 6 22Z"/>
<path d="M1 18C0.447715 18 -2.41411e-08 17.5523 0 17C2.41411e-08 16.4477 0.447715 16 1 16C1.55228 16 2 16.4477 2 17C2 17.5523 1.55228 18 1 18Z"/>
<path d="M12 2C11.4477 2 11 1.55228 11 1C11 0.447715 11.4477 -2.41411e-08 12 0C12.5523 2.41411e-08 13 0.447715 13 1C13 1.55228 12.5523 2 12 2Z"/>
<path d="M21 13C20.4477 13 20 12.5523 20 12C20 11.4477 20.4477 11 21 11C21.5523 11 22 11.4477 22 12C22 12.5523 21.5523 13 21 13Z"/>
</mask>
<path d="M5.43949 2.83408C5.70916 1.72197 7.29084 1.72197 7.56051 2.83408L8.30252 5.89413C8.3988 6.29118 8.70882 6.6012 9.10587 6.69748L12.1659 7.43949C13.278 7.70916 13.278 9.29084 12.1659 9.56051L9.10587 10.3025C8.70882 10.3988 8.3988 10.7088 8.30252 11.1059L7.56051 14.1659C7.29084 15.278 5.70916 15.278 5.43949 14.1659L4.69748 11.1059C4.6012 10.7088 4.29118 10.3988 3.89413 10.3025L0.834083 9.56051C-0.278027 9.29084 -0.278028 7.70916 0.834082 7.43949L3.89413 6.69748C4.29118 6.6012 4.6012 6.29118 4.69748 5.89413L5.43949 2.83408Z" fill="white"/>
<path d="M14.3474 13.5133C14.5133 12.8289 15.4867 12.8289 15.6526 13.5133L16.1092 15.3964C16.1685 15.6407 16.3593 15.8315 16.6036 15.8908L18.4867 16.3474C19.1711 16.5133 19.1711 17.4867 18.4867 17.6526L16.6036 18.1092C16.3593 18.1685 16.1685 18.3593 16.1092 18.6036L15.6526 20.4867C15.4867 21.1711 14.5133 21.1711 14.3474 20.4867L13.8908 18.6036C13.8315 18.3593 13.6407 18.1685 13.3964 18.1092L11.5133 17.6526C10.8289 17.4867 10.8289 16.5133 11.5133 16.3474L13.3964 15.8908C13.6407 15.8315 13.8315 15.6407 13.8908 15.3964L14.3474 13.5133Z" fill="white"/>
<path d="M17.5717 2.71184C17.6806 2.26272 18.3194 2.26272 18.4283 2.71184L18.7279 3.94763C18.7668 4.10798 18.892 4.23318 19.0524 4.27206L20.2882 4.57172C20.7373 4.68062 20.7373 5.31938 20.2882 5.42828L19.0524 5.72794C18.892 5.76682 18.7668 5.89202 18.7279 6.05237L18.4283 7.28816C18.3194 7.73728 17.6806 7.73728 17.5717 7.28816L17.2721 6.05237C17.2332 5.89202 17.108 5.76682 16.9476 5.72794L15.7118 5.42828C15.2627 5.31938 15.2627 4.68062 15.7118 4.57172L16.9476 4.27206C17.108 4.23318 17.2332 4.10798 17.2721 3.94763L17.5717 2.71184Z" fill="white"/>
<path fill-rule="evenodd" clip-rule="evenodd" d="M18 2.93109L17.7554 3.93972C17.6577 4.34288 17.3429 4.65766 16.9397 4.75542L15.9311 5L16.9397 5.24458C17.3429 5.34234 17.6577 5.65712 17.7554 6.06029L18 7.06891L18.2446 6.06029C18.3423 5.65712 18.6571 5.34234 19.0603 5.24458L20.0689 5L19.0603 4.75542C18.6571 4.65766 18.3423 4.34288 18.2446 3.93972L18 2.93109ZM18.4895 2.38496C18.365 1.87168 17.635 1.87168 17.5105 2.38496L17.1681 3.79729C17.1236 3.98055 16.9805 4.12363 16.7973 4.16807L15.385 4.51054C14.8717 4.635 14.8717 5.365 15.385 5.48947L16.7973 5.83193C16.9805 5.87637 17.1236 6.01945 17.1681 6.20271L17.5105 7.61504C17.635 8.12832 18.365 8.12832 18.4895 7.61504L18.8319 6.20271C18.8764 6.01945 19.0195 5.87637 19.2027 5.83193L20.615 5.48947C21.1283 5.365 21.1283 4.635 20.615 4.51054L19.2027 4.16807C19.0195 4.12363 18.8764 3.98055 18.8319 3.79729L18.4895 2.38496Z" fill="white"/>
<path d="M6 22C5.44772 22 5 21.5523 5 21C5 20.4477 5.44772 20 6 20C6.55228 20 7 20.4477 7 21C7 21.5523 6.55228 22 6 22Z" fill="white"/>
<path d="M1 18C0.447715 18 -2.41411e-08 17.5523 0 17C2.41411e-08 16.4477 0.447715 16 1 16C1.55228 16 2 16.4477 2 17C2 17.5523 1.55228 18 1 18Z" fill="white"/>
<path d="M12 2C11.4477 2 11 1.55228 11 1C11 0.447715 11.4477 -2.41411e-08 12 0C12.5523 2.41411e-08 13 0.447715 13 1C13 1.55228 12.5523 2 12 2Z" fill="white"/>
<path d="M21 13C20.4477 13 20 12.5523 20 12C20 11.4477 20.4477 11 21 11C21.5523 11 22 11.4477 22 12C22 12.5523 21.5523 13 21 13Z" fill="white"/>
<path d="M5.43949 2.83408L131.778 33.4694L131.778 33.4694L5.43949 2.83408ZM7.56051 2.83408L133.899 -27.8012V-27.8012L7.56051 2.83408ZM8.30252 5.89413L-118.036 36.5294L-118.036 36.5296L8.30252 5.89413ZM9.10587 6.69748L39.7412 -119.641L39.7411 -119.641L9.10587 6.69748ZM12.1659 7.43949L-18.4694 133.778L-18.4694 133.778L12.1659 7.43949ZM12.1659 9.56051L42.8012 135.899L42.8012 135.899L12.1659 9.56051ZM9.10587 10.3025L-21.5294 -116.036L-21.5296 -116.036L9.10587 10.3025ZM8.30252 11.1059L134.641 41.7412L134.641 41.7411L8.30252 11.1059ZM7.56051 14.1659L133.899 44.8012L133.899 44.8012L7.56051 14.1659ZM5.43949 14.1659L-120.899 44.8012L-120.899 44.8012L5.43949 14.1659ZM4.69748 11.1059L131.036 -19.5294L131.036 -19.5296L4.69748 11.1059ZM3.89413 10.3025L-26.7412 136.641L-26.7411 136.641L3.89413 10.3025ZM0.834083 9.56051L31.4694 -116.778H31.4694L0.834083 9.56051ZM0.834082 7.43949L-29.8012 -118.899L-29.8012 -118.899L0.834082 7.43949ZM3.89413 6.69748L34.5294 133.036L34.5296 133.036L3.89413 6.69748ZM4.69748 5.89413L-121.641 -24.7412L-121.641 -24.7411L4.69748 5.89413ZM14.3474 13.5133L-111.991 -17.122L-111.991 -17.122L14.3474 13.5133ZM15.6526 13.5133L141.991 -17.122V-17.122L15.6526 13.5133ZM16.1092 15.3964L-110.23 46.0317L-110.229 46.0319L16.1092 15.3964ZM16.6036 15.8908L47.2389 -110.448L47.2388 -110.448L16.6036 15.8908ZM18.4867 16.3474L49.122 -109.991L49.122 -109.991L18.4867 16.3474ZM18.4867 17.6526L49.122 143.991L49.1221 143.991L18.4867 17.6526ZM16.6036 18.1092L-14.0317 -108.23L-14.0318 -108.229L16.6036 18.1092ZM16.1092 18.6036L142.448 49.2389L142.448 49.2388L16.1092 18.6036ZM15.6526 20.4867L141.991 51.122V51.122L15.6526 20.4867ZM14.3474 20.4867L-111.991 51.1219L-111.991 51.1221L14.3474 20.4867ZM13.8908 18.6036L140.23 -12.0316L140.229 -12.0318L13.8908 18.6036ZM13.3964 18.1092L-17.2389 144.448H-17.2389L13.3964 18.1092ZM11.5133 17.6526L-19.122 143.991H-19.122L11.5133 17.6526ZM11.5133 16.3474L-19.1219 -109.991L-19.122 -109.991L11.5133 16.3474ZM13.3964 15.8908L44.0316 142.23L44.0319 142.229L13.3964 15.8908ZM13.8908 15.3964L-112.448 -15.2389L-112.448 -15.2389L13.8908 15.3964ZM17.5717 2.71184L-108.767 -27.9234L-108.767 -27.9234L17.5717 2.71184ZM18.4283 2.71184L144.767 -27.9234L144.767 -27.9234L18.4283 2.71184ZM18.7279 3.94763L-107.611 34.5829L-107.611 34.5829L18.7279 3.94763ZM19.0524 4.27206L49.6877 -122.067H49.6877L19.0524 4.27206ZM20.2882 4.57172L-10.3471 130.91H-10.3471L20.2882 4.57172ZM20.2882 5.42828L-10.3471 -120.91L-10.3471 -120.91L20.2882 5.42828ZM19.0524 5.72794L49.6877 132.067H49.6877L19.0524 5.72794ZM18.7279 6.05237L-107.611 -24.5829L-107.611 -24.5829L18.7279 6.05237ZM18.4283 7.28816L144.767 37.9234L144.767 37.9234L18.4283 7.28816ZM17.5717 7.28816L-108.767 37.9234L-108.767 37.9234L17.5717 7.28816ZM17.2721 6.05237L143.611 -24.5829L143.611 -24.5829L17.2721 6.05237ZM16.9476 5.72794L-13.6877 132.067H-13.6877L16.9476 5.72794ZM15.7118 5.42828L46.3471 -120.91L46.3471 -120.91L15.7118 5.42828ZM15.7118 4.57172L-14.9234 -121.767L-14.9234 -121.767L15.7118 4.57172ZM16.9476 4.27206L47.5829 130.611L47.5829 130.611L16.9476 4.27206ZM17.2721 3.94763L143.611 34.5829V34.5829L17.2721 3.94763ZM18 2.93109L144.339 -27.7044L-108.339 -27.7041L18 2.93109ZM17.7554 3.93972L144.094 34.575V34.575L17.7554 3.93972ZM16.9397 4.75542L47.575 131.094H47.575L16.9397 4.75542ZM15.9311 5L-14.7042 -121.339L-14.7043 131.339L15.9311 5ZM16.9397 5.24458L-13.6957 131.583L-13.6955 131.583L16.9397 5.24458ZM17.7554 6.06029L144.094 -24.5749L144.094 -24.575L17.7554 6.06029ZM18 7.06891L-108.339 37.7041L144.339 37.7044L18 7.06891ZM18.2446 6.06029L144.583 36.6957L144.583 36.6955L18.2446 6.06029ZM19.0603 5.24458L49.6955 131.583L49.6956 131.583L19.0603 5.24458ZM20.0689 5L50.7043 131.339L50.7042 -121.339L20.0689 5ZM19.0603 4.75542L49.6956 -121.583L49.6956 -121.583L19.0603 4.75542ZM18.2446 3.93972L144.583 -26.6955L144.583 -26.6957L18.2446 3.93972ZM18.4895 2.38496L144.828 -28.2503L144.828 -28.2503L18.4895 2.38496ZM17.5105 2.38496L-108.828 -28.2503L-108.828 -28.2503L17.5105 2.38496ZM17.1681 3.79729L-109.171 -26.838L-109.171 -26.8379L17.1681 3.79729ZM16.7973 4.16807L47.4326 130.507L47.4328 130.507L16.7973 4.16807ZM15.385 4.51054L-15.2503 -121.828H-15.2503L15.385 4.51054ZM15.385 5.48947L46.0203 -120.849L46.0203 -120.849L15.385 5.48947ZM16.7973 5.83193L-13.838 132.171L-13.8379 132.171L16.7973 5.83193ZM17.1681 6.20271L143.507 -24.4325L143.507 -24.4328L17.1681 6.20271ZM17.5105 7.61504L-108.828 38.2503L-108.828 38.2504L17.5105 7.61504ZM18.4895 7.61504L144.828 38.2503L144.828 38.2503L18.4895 7.61504ZM18.8319 6.20271L145.171 36.838V36.8379L18.8319 6.20271ZM19.2027 5.83193L-11.4326 -120.507L-11.4328 -120.507L19.2027 5.83193ZM20.615 5.48947L51.2503 131.828L51.2504 131.828L20.615 5.48947ZM20.615 4.51054L-10.0203 130.849H-10.0203L20.615 4.51054ZM19.2027 4.16807L49.838 -122.171L49.8379 -122.171L19.2027 4.16807ZM18.8319 3.79729L-107.507 34.4325L-107.507 34.4328L18.8319 3.79729ZM6 22L6.00001 -108L6 22ZM5 21L-125 21L5 21ZM6 20L6.00001 -110L6 20ZM7 21L-123 21L7 21ZM1 18L1.00001 -112L1 18ZM0 17L-130 17L0 17ZM1 16L1.00001 -114L1 16ZM2 17L-128 17L2 17ZM12 2L12 -128L12 2ZM11 1L-119 0.999994L11 1ZM12 0L12 -130L12 0ZM13 1L-117 0.999994L13 1ZM21 13L21 -117L21 13ZM20 12L-110 12L20 12ZM21 11L21 -119L21 11ZM22 12L-108 12L22 12ZM131.778 33.4694C99.922 164.843 -86.9218 164.844 -118.778 33.4694L133.899 -27.8012C101.504 -161.4 -88.5037 -161.399 -120.899 -27.8012L131.778 33.4694ZM-118.778 33.4693L-118.036 36.5294L134.641 -24.7411L133.899 -27.8012L-118.778 33.4693ZM-118.036 36.5296C-106.47 84.2281 -69.228 121.47 -21.5293 133.036L39.7411 -119.641C86.6456 -108.268 123.268 -71.6457 134.641 -24.7414L-118.036 36.5296ZM-21.5294 133.036L-18.4694 133.778L42.8012 -118.899L39.7412 -119.641L-21.5294 133.036ZM-18.4694 133.778C-149.843 101.922 -149.844 -84.9219 -18.4694 -116.778L42.8012 135.899C176.4 103.504 176.399 -86.5036 42.8012 -118.899L-18.4694 133.778ZM-18.4693 -116.778L-21.5294 -116.036L39.7411 136.641L42.8012 135.899L-18.4693 -116.778ZM-21.5296 -116.036C-69.228 -104.47 -106.47 -67.2281 -118.036 -19.5293L134.641 41.7411C123.268 88.6457 86.6457 125.268 39.7414 136.641L-21.5296 -116.036ZM-118.036 -19.5294L-118.778 -16.4694L133.899 44.8012L134.641 41.7412L-118.036 -19.5294ZM-118.778 -16.4694C-86.922 -147.843 99.9219 -147.844 131.778 -16.4694L-120.899 44.8012C-88.5035 178.4 101.504 178.399 133.899 44.8012L-118.778 -16.4694ZM131.778 -16.4693L131.036 -19.5294L-121.641 41.7411L-120.899 44.8012L131.778 -16.4693ZM131.036 -19.5296C119.47 -67.228 82.2281 -104.47 34.5293 -116.036L-26.7411 136.641C-73.6457 125.268 -110.268 88.6457 -121.641 41.7414L131.036 -19.5296ZM34.5294 -116.036L31.4694 -116.778L-29.8012 135.899L-26.7412 136.641L34.5294 -116.036ZM31.4694 -116.778C162.843 -84.922 162.844 101.922 31.4694 133.778L-29.8012 -118.899C-163.4 -86.5035 -163.399 103.504 -29.8012 135.899L31.4694 -116.778ZM31.4694 133.778L34.5294 133.036L-26.7411 -119.641L-29.8012 -118.899L31.4694 133.778ZM34.5296 133.036C82.228 121.47 119.47 84.2281 131.036 36.5293L-121.641 -24.7411C-110.268 -71.6457 -73.6456 -108.268 -26.7414 -119.641L34.5296 133.036ZM131.036 36.5294L131.778 33.4694L-120.899 -27.8012L-121.641 -24.7412L131.036 36.5294ZM140.686 44.1486C108.726 175.95 -78.7261 175.95 -110.686 44.1486L141.991 -17.122C109.699 -150.293 -79.6994 -150.293 -111.991 -17.122L140.686 44.1486ZM-110.686 44.1486L-110.23 46.0317L142.448 -15.2389L141.991 -17.122L-110.686 44.1486ZM-110.229 46.0319C-98.7002 93.5777 -61.5775 130.7 -14.0316 142.23L47.2388 -110.448C94.2961 -99.0374 131.037 -62.2962 142.448 -15.2391L-110.229 46.0319ZM-14.0317 142.23L-12.1486 142.686L49.122 -109.991L47.2389 -110.448L-14.0317 142.23ZM-12.1486 142.686C-143.951 110.726 -143.95 -76.7261 -12.1486 -108.686L49.1221 143.991C182.292 111.699 182.293 -77.6993 49.122 -109.991L-12.1486 142.686ZM-12.1486 -108.686L-14.0317 -108.23L47.2389 144.448L49.122 143.991L-12.1486 -108.686ZM-14.0318 -108.229C-61.5775 -96.7003 -98.7003 -59.5777 -110.23 -12.0316L142.448 49.2388C131.037 96.2963 94.296 133.037 47.2391 144.448L-14.0318 -108.229ZM-110.23 -12.0317L-110.686 -10.1486L141.991 51.122L142.448 49.2389L-110.23 -12.0317ZM-110.686 -10.1486C-78.726 -141.951 108.726 -141.95 140.686 -10.1486L-111.991 51.1221C-79.6995 184.292 109.699 184.293 141.991 51.122L-110.686 -10.1486ZM140.686 -10.1485L140.23 -12.0316L-112.448 49.2388L-111.991 51.1219L140.686 -10.1485ZM140.229 -12.0318C128.7 -59.5775 91.5777 -96.7003 44.0316 -108.23L-17.2389 144.448C-64.2962 133.037 -101.037 96.296 -112.448 49.2391L140.229 -12.0318ZM44.0317 -108.23L42.1486 -108.686L-19.122 143.991L-17.2389 144.448L44.0317 -108.23ZM42.1486 -108.686C173.95 -76.7261 173.95 110.726 42.1486 142.686L-19.122 -109.991C-152.293 -77.6994 -152.293 111.699 -19.122 143.991L42.1486 -108.686ZM42.1485 142.686L44.0316 142.23L-17.2388 -110.448L-19.1219 -109.991L42.1485 142.686ZM44.0319 142.229C91.5777 130.7 128.7 93.5775 140.23 46.0316L-112.448 -15.2389C-101.037 -62.296 -64.2963 -99.0372 -17.2391 -110.448L44.0319 142.229ZM140.23 46.0317L140.686 44.1486L-111.991 -17.122L-112.448 -15.2389L140.23 46.0317ZM143.91 33.3471C111.893 165.384 -75.8934 165.385 -107.91 33.3471L144.767 -27.9234C112.532 -160.859 -76.5322 -160.859 -108.767 -27.9234L143.91 33.3471ZM-107.91 33.3471L-107.611 34.5829L145.067 -26.6876L144.767 -27.9234L-107.91 33.3471ZM-107.611 34.5829C-96.1019 82.0452 -59.0445 119.102 -11.5829 130.611L49.6877 -122.067C96.8286 -110.636 133.636 -73.8292 145.067 -26.6877L-107.611 34.5829ZM-11.5829 130.611L-10.3471 130.91L50.9235 -121.767L49.6877 -122.067L-11.5829 130.611ZM-10.3471 130.91C-142.384 98.8935 -142.385 -88.8934 -10.3471 -120.91L50.9234 131.767C183.859 99.5321 183.859 -89.5322 50.9234 -121.767L-10.3471 130.91ZM-10.3471 -120.91L-11.5829 -120.611L49.6877 132.067L50.9235 131.767L-10.3471 -120.91ZM-11.5829 -120.611C-59.0444 -109.102 -96.1019 -72.0453 -107.611 -24.5829L145.067 36.6877C133.636 83.8293 96.8285 120.636 49.6877 132.067L-11.5829 -120.611ZM-107.611 -24.5829L-107.91 -23.3471L144.767 37.9234L145.067 36.6876L-107.611 -24.5829ZM-107.91 -23.3471C-75.8936 -155.384 111.893 -155.385 143.91 -23.3471L-108.767 37.9234C-76.532 170.86 112.532 170.858 144.767 37.9234L-107.91 -23.3471ZM143.91 -23.3471L143.611 -24.5829L-109.067 36.6876L-108.767 37.9234L143.91 -23.3471ZM143.611 -24.5829C132.102 -72.0453 95.0444 -109.102 47.5829 -120.611L-13.6877 132.067C-60.8285 120.636 -97.6355 83.8293 -109.067 36.6877L143.611 -24.5829ZM47.5829 -120.611L46.3471 -120.91L-14.9235 131.767L-13.6877 132.067L47.5829 -120.611ZM46.3471 -120.91C178.383 -88.8936 178.385 98.8932 46.3471 130.91L-14.9234 -121.767C-147.86 -89.5319 -147.858 99.5324 -14.9234 131.767L46.3471 -120.91ZM46.3471 130.91L47.5829 130.611L-13.6876 -122.067L-14.9234 -121.767L46.3471 130.91ZM47.5829 130.611C95.0447 119.102 132.102 82.0449 143.611 34.5829L-109.067 -26.6877C-97.6356 -73.829 -60.8288 -110.636 -13.6877 -122.067L47.5829 130.611ZM143.611 34.5829L143.91 33.3471L-108.767 -27.9234L-109.067 -26.6876L143.611 34.5829ZM-108.339 -27.7041L-108.583 -26.6955L144.094 34.575L144.339 33.5663L-108.339 -27.7041ZM-108.583 -26.6956C-97.2111 -73.5942 -60.5937 -110.211 -13.6956 -121.583L47.575 131.094C95.2795 119.527 132.526 82.28 144.094 34.575L-108.583 -26.6956ZM-13.6956 -121.583L-14.7042 -121.339L46.5664 131.339L47.575 131.094L-13.6956 -121.583ZM-14.7043 131.339L-13.6957 131.583L47.5751 -121.094L46.5665 -121.339L-14.7043 131.339ZM-13.6955 131.583C-60.5938 120.211 -97.2111 83.5941 -108.583 36.6956L144.094 -24.575C132.526 -72.2799 95.2796 -109.527 47.5749 -121.094L-13.6955 131.583ZM-108.583 36.6955L-108.339 37.7041L144.339 -23.5663L144.094 -24.5749L-108.583 36.6955ZM144.339 37.7044L144.583 36.6957L-108.094 -24.5752L-108.339 -23.5665L144.339 37.7044ZM144.583 36.6955C133.211 83.5939 96.594 120.211 49.6955 131.583L-11.575 -121.094C-59.2798 -109.526 -96.5265 -72.2797 -108.094 -24.5749L144.583 36.6955ZM49.6956 131.583L50.7043 131.339L-10.5665 -121.339L-11.5751 -121.094L49.6956 131.583ZM50.7042 -121.339L49.6956 -121.583L-11.575 131.094L-10.5664 131.339L50.7042 -121.339ZM49.6956 -121.583C96.5941 -110.211 133.211 -73.5938 144.583 -26.6955L-108.094 34.575C-96.5265 82.2796 -59.2799 119.526 -11.575 131.094L49.6956 -121.583ZM144.583 -26.6957L144.339 -27.7044L-108.339 33.5666L-108.094 34.5752L144.583 -26.6957ZM144.828 -28.2503C112.578 -161.25 -76.5779 -161.249 -108.828 -28.2503L143.849 33.0203C111.848 164.993 -75.8477 164.994 -107.849 33.0203L144.828 -28.2503ZM-108.828 -28.2503L-109.171 -26.838L143.507 34.4325L143.849 33.0202L-108.828 -28.2503ZM-109.171 -26.8379C-97.7452 -73.9566 -60.956 -110.745 -13.8382 -122.171L47.4328 130.507C94.9171 118.992 131.992 81.9177 143.507 34.4325L-109.171 -26.8379ZM-13.838 -122.171L-15.2503 -121.828L46.0203 130.849L47.4326 130.507L-13.838 -122.171ZM-15.2503 -121.828C-148.25 -89.5778 -148.25 99.5778 -15.2503 131.828L46.0203 -120.849C177.993 -88.8478 177.993 98.8478 46.0203 130.849L-15.2503 -121.828ZM-15.2504 131.828L-13.838 132.171L47.4326 -120.507L46.0203 -120.849L-15.2504 131.828ZM-13.8379 132.171C-60.9562 120.745 -97.7451 83.9564 -109.171 36.8382L143.507 -24.4328C131.992 -71.9175 94.9173 -108.993 47.4325 -120.507L-13.8379 132.171ZM-109.171 36.8379L-108.828 38.2503L143.849 -23.0202L143.507 -24.4325L-109.171 36.8379ZM-108.828 38.2504C-76.5777 171.25 112.578 171.25 144.828 38.2503L-107.849 -23.0203C-75.8478 -154.993 111.848 -154.993 143.849 -23.0203L-108.828 38.2504ZM144.828 38.2503L145.171 36.838L-107.507 -24.4325L-107.849 -23.0202L144.828 38.2503ZM145.171 36.8379C133.745 83.9567 96.956 120.745 49.8382 132.171L-11.4328 -120.507C-58.917 -108.992 -95.9924 -71.9178 -107.507 -24.4325L145.171 36.8379ZM49.838 132.171L51.2503 131.828L-10.0202 -120.849L-11.4326 -120.507L49.838 132.171ZM51.2504 131.828C184.25 99.5778 184.25 -89.5777 51.2503 -121.828L-10.0203 130.849C-141.994 98.8477 -141.993 -88.8478 -10.0203 -120.849L51.2504 131.828ZM51.2504 -121.828L49.838 -122.171L-11.4326 130.507L-10.0203 130.849L51.2504 -121.828ZM49.8379 -122.171C96.9562 -110.745 133.745 -73.9565 145.171 -26.8382L-107.507 34.4328C-95.9923 81.9176 -58.9173 118.993 -11.4325 130.507L49.8379 -122.171ZM145.171 -26.8379L144.828 -28.2503L-107.849 33.0202L-107.507 34.4325L145.171 -26.8379ZM6.00001 -108C77.2447 -108 135 -50.2447 135 21L-125 21C-125 93.3493 -66.3493 152 5.99999 152L6.00001 -108ZM135 21C135 92.2447 77.2447 150 5.99999 150L6.00001 -110C-66.3493 -110 -125 -51.3493 -125 21L135 21ZM5.99999 150C-65.2447 150 -123 92.2447 -123 21L137 21C137 -51.3493 78.3493 -110 6.00001 -110L5.99999 150ZM-123 21C-123 -50.2447 -65.2447 -108 6.00001 -108L5.99999 152C78.3493 152 137 93.3493 137 21L-123 21ZM1.00001 -112C72.2447 -112 130 -54.2447 130 17L-130 17C-130 89.3493 -71.3493 148 0.999994 148L1.00001 -112ZM130 17C130 88.2447 72.2447 146 0.999994 146L1.00001 -114C-71.3493 -114 -130 -55.3493 -130 17L130 17ZM0.999994 146C-70.2447 146 -128 88.2447 -128 17L132 17C132 -55.3493 73.3493 -114 1.00001 -114L0.999994 146ZM-128 17C-128 -54.2447 -70.2447 -112 1.00001 -112L0.999994 148C73.3493 148 132 89.3493 132 17L-128 17ZM12 -128C83.2447 -128 141 -70.2447 141 1.00001L-119 0.999994C-119 73.3493 -60.3493 132 12 132L12 -128ZM141 1.00001C141 72.2447 83.2447 130 12 130L12 -130C-60.3493 -130 -119 -71.3493 -119 0.999994L141 1.00001ZM12 130C-59.2447 130 -117 72.2447 -117 0.999994L143 1.00001C143 -71.3493 84.3493 -130 12 -130L12 130ZM-117 0.999994C-117 -70.2447 -59.2447 -128 12 -128L12 132C84.3493 132 143 73.3493 143 1.00001L-117 0.999994ZM21 -117C92.2447 -117 150 -59.2447 150 12L-110 12C-110 84.3493 -51.3493 143 21 143L21 -117ZM150 12C150 83.2447 92.2447 141 21 141L21 -119C-51.3493 -119 -110 -60.3493 -110 12L150 12ZM21 141C-50.2447 141 -108 83.2447 -108 12L152 12C152 -60.3493 93.3493 -119 21 -119L21 141ZM-108 12C-108 -59.2447 -50.2447 -117 21 -117L21 143C93.3493 143 152 84.3493 152 12L-108 12Z" fill="url(#paint0_linear_238_320)" mask="url(#path-1-inside-1_238_320)"/>
<defs>
<linearGradient id="paint0_linear_238_320" x1="11" y1="0" x2="11" y2="22" gradientUnits="userSpaceOnUse">
<stop stop-color="#9069CD"/>
<stop offset="0.32625" stop-color="#FFB2B2"/>
<stop offset="0.59125" stop-color="#FFC800"/>
<stop offset="0.80625" stop-color="#58CC02"/>
</linearGradient>
</defs>
</svg>
