<svg width="32" height="27" viewBox="0 0 32 27" fill="none" xmlns="http://www.w3.org/2000/svg">
<path d="M18.0805 23.158H13.0935C12.6878 23.158 12.3589 23.4851 12.3589 23.8885V25.3906C12.3589 25.7941 12.6878 26.1212 13.0935 26.1212H18.0805C18.4862 26.1212 18.8151 25.7941 18.8151 25.3906V23.8885C18.8151 23.4851 18.4862 23.158 18.0805 23.158Z" fill="#9069CD"/>
<path fill-rule="evenodd" clip-rule="evenodd" d="M1.46915 0.935059H29.705C30.5164 0.935059 31.1742 1.58914 31.1742 2.396V23.9198C31.1742 24.7267 30.5164 25.3808 29.705 25.3808H1.46915C0.657762 25.3808 0 24.7267 0 23.9198V2.396C0 1.58914 0.657762 0.935059 1.46915 0.935059Z" fill="#9069CD"/>
<path d="M17.5272 21.4915H13.647C13.2412 21.4915 12.9124 21.8185 12.9124 22.222V23.1686C12.9124 23.5719 13.2412 23.899 13.647 23.899H17.5272C17.9329 23.899 18.2618 23.5719 18.2618 23.1686V22.222C18.2618 21.8185 17.9329 21.4915 17.5272 21.4915Z" fill="#D2E4E8"/>
<path fill-rule="evenodd" clip-rule="evenodd" d="M2.02905 18.1583H29.3295V22.243C29.3295 22.6464 29.0006 22.9734 28.595 22.9734H15.6797H11.4363H2.76363C2.35793 22.9734 2.02905 22.6464 2.02905 22.243V18.1583Z" fill="#D2E4E8"/>
<path fill-rule="evenodd" clip-rule="evenodd" d="M29.3295 20.3802H18.2503C16.8304 20.3802 15.6793 21.5248 15.6793 22.9368C15.6793 21.5248 14.5282 20.3802 13.1083 20.3802H2.02905V2.59113C2.02905 2.1877 2.35793 1.86066 2.76363 1.86066H13.1083C14.5282 1.86066 15.6793 3.00531 15.6793 4.4173C15.6793 3.00531 16.8304 1.86066 18.2503 1.86066H28.595C29.0006 1.86066 29.3295 2.1877 29.3295 2.59113V20.3802Z" fill="white"/>
<path d="M13.2838 3.71283H4.05582C3.75154 3.71283 3.50488 3.95811 3.50488 4.26068V4.83173C3.50488 5.1343 3.75154 5.37958 4.05582 5.37958H13.2838C13.5881 5.37958 13.8348 5.1343 13.8348 4.83173V4.26068C13.8348 3.95811 13.5881 3.71283 13.2838 3.71283Z" fill="#D2E4E8"/>
<path d="M13.2838 11.3059H4.05582C3.75154 11.3059 3.50488 11.5512 3.50488 11.8538V12.4249C3.50488 12.7274 3.75154 12.9727 4.05582 12.9727H13.2838C13.5881 12.9727 13.8348 12.7274 13.8348 12.4249V11.8538C13.8348 11.5512 13.5881 11.3059 13.2838 11.3059Z" fill="#D2E4E8"/>
<path d="M11.2547 7.60181H4.05582C3.75154 7.60181 3.50488 7.84709 3.50488 8.14965V8.72067C3.50488 9.02331 3.75154 9.2686 4.05582 9.2686H11.2547C11.5591 9.2686 11.8057 9.02331 11.8057 8.72067V8.14965C11.8057 7.84709 11.5591 7.60181 11.2547 7.60181Z" fill="#D2E4E8"/>
<path d="M11.2547 15.0099H4.05582C3.75154 15.0099 3.50488 15.2552 3.50488 15.5578V16.1288C3.50488 16.4314 3.75154 16.6767 4.05582 16.6767H11.2547C11.5591 16.6767 11.8057 16.4314 11.8057 16.1288V15.5578C11.8057 15.2552 11.5591 15.0099 11.2547 15.0099Z" fill="#D2E4E8"/>
<path fill-rule="evenodd" clip-rule="evenodd" d="M6.45377 0.194092H10.7013C11.0056 0.194092 11.2523 0.439379 11.2523 0.741947V14.0806C11.2523 14.3831 11.0056 14.6284 10.7013 14.6284C10.6006 14.6284 10.502 14.601 10.4159 14.5491L8.78117 13.5645C8.60043 13.4557 8.3731 13.4592 8.19587 13.5735L6.75364 14.504C6.49838 14.6687 6.15721 14.5964 5.99159 14.3426C5.93366 14.2539 5.90283 14.1503 5.90283 14.0445V0.741947C5.90283 0.439379 6.1495 0.194092 6.45377 0.194092Z" fill="#FF4B4B"/>
<path d="M27.4875 3.71283H18.2594C17.9552 3.71283 17.7085 3.95811 17.7085 4.26068V4.83173C17.7085 5.1343 17.9552 5.37958 18.2594 5.37958H27.4875C27.7918 5.37958 28.0384 5.1343 28.0384 4.83173V4.26068C28.0384 3.95811 27.7918 3.71283 27.4875 3.71283Z" fill="#D2E4E8"/>
<path d="M27.4875 11.3059H18.2594C17.9552 11.3059 17.7085 11.5512 17.7085 11.8538V12.4249C17.7085 12.7274 17.9552 12.9727 18.2594 12.9727H27.4875C27.7918 12.9727 28.0384 12.7274 28.0384 12.4249V11.8538C28.0384 11.5512 27.7918 11.3059 27.4875 11.3059Z" fill="#D2E4E8"/>
<path d="M25.4584 7.60181H18.2594C17.9552 7.60181 17.7085 7.84709 17.7085 8.14965V8.72067C17.7085 9.02331 17.9552 9.2686 18.2594 9.2686H25.4584C25.7627 9.2686 26.0093 9.02331 26.0093 8.72067V8.14965C26.0093 7.84709 25.7627 7.60181 25.4584 7.60181Z" fill="#D2E4E8"/>
<path d="M25.4584 15.0099H18.2594C17.9552 15.0099 17.7085 15.2552 17.7085 15.5578V16.1288C17.7085 16.4314 17.9552 16.6767 18.2594 16.6767H25.4584C25.7627 16.6767 26.0093 16.4314 26.0093 16.1288V15.5578C26.0093 15.2552 25.7627 15.0099 25.4584 15.0099Z" fill="#D2E4E8"/>
</svg>
