<svg width="59" height="48" viewBox="0 0 59 48" fill="none" xmlns="http://www.w3.org/2000/svg">
<path d="M6.45496 44.2658H46.2157C48.4751 44.2658 49.6049 44.2658 50.4678 43.8261C51.227 43.4393 51.8441 42.8221 52.2309 42.063C52.6706 41.2 52.6706 40.0703 52.6706 37.8108V10.6014C52.6706 8.34195 52.6706 7.21223 52.2309 6.34923C51.8441 5.59012 51.227 4.97295 50.4678 4.58616C49.6049 4.14644 48.4751 4.14644 46.2157 4.14644H24.4022C23.1975 4.14644 21.6566 4.03438 20.1437 2.88571C18.6308 1.73704 19.9196 2.71761 18.3227 1.48489C16.7257 0.252177 15.9114 3.05176e-05 14.5124 3.05176e-05H6.45496C4.19551 3.05176e-05 3.06579 3.07262e-05 2.20279 0.439748C1.44368 0.826535 0.826504 1.44371 0.439718 2.20282C0 3.06582 0 4.19554 0 6.45499V37.8108C0 40.0703 0 41.2 0.439718 42.063C0.826504 42.8221 1.44368 43.4393 2.20279 43.8261C3.06579 44.2658 4.19551 44.2658 6.45496 44.2658Z" fill="#1CB0F6"/>
<path d="M46.2157 43.2658H6.45496C5.30873 43.2658 4.50921 43.265 3.88664 43.2141C3.27574 43.1642 2.92381 43.0711 2.65678 42.9351C2.08583 42.6441 1.62164 42.1799 1.33072 41.609C1.19467 41.342 1.10156 40.99 1.05164 40.3791C1.00078 39.7566 1 38.9571 1 37.8108V6.45499C1 5.30876 1.00078 4.50924 1.05164 3.88667C1.10156 3.27577 1.19467 2.92384 1.33072 2.65681C1.62164 2.08586 2.08583 1.62167 2.65678 1.33075C2.92381 1.1947 3.27574 1.10159 3.88664 1.05167C4.5092 1.00081 5.30873 1.00003 6.45496 1.00003H14.5124C15.1465 1.00003 15.5679 1.05715 15.9917 1.21634C16.4332 1.38216 16.9441 1.68402 17.7116 2.27648C18.4974 2.88305 18.5719 2.94415 18.6476 3.0037C18.7216 3.06192 18.7968 3.11865 19.539 3.68216C21.3149 5.03052 23.1265 5.14644 24.4022 5.14644H46.2157C47.3619 5.14644 48.1614 5.14722 48.784 5.19809C49.3949 5.248 49.7468 5.34111 50.0139 5.47717C50.5848 5.76808 51.049 6.23228 51.3399 6.80322C51.476 7.07025 51.5691 7.42218 51.619 8.03308C51.6699 8.65565 51.6706 9.45517 51.6706 10.6014V37.8108C51.6706 38.9571 51.6699 39.7566 51.619 40.3791C51.5691 40.99 51.476 41.342 51.3399 41.609C51.049 42.1799 50.5848 42.6441 50.0139 42.9351C49.7468 43.0711 49.3949 43.1642 48.784 43.2141C48.1614 43.265 47.3619 43.2658 46.2157 43.2658Z" stroke="url(#paint0_linear_161_522)" stroke-opacity="0.07" stroke-width="2"/>
<rect x="30.4523" y="6.11096" width="21.717" height="34.8202" rx="1" transform="rotate(6.86152 30.4523 6.11096)" fill="#386A00"/>
<rect x="29.093" y="5.83105" width="21.831" height="34.9296" rx="1" transform="rotate(6.86152 29.093 5.83105)" fill="#58A700"/>
<path d="M34.3101 7.69227C34.4501 7.26451 34.8587 6.98303 35.3083 7.00457L42.5706 7.35253C43.1098 7.37836 43.5312 7.82747 43.5227 8.36721L43.1151 34.1042C43.1074 34.5891 42.7529 34.9986 42.2741 35.0757L26.0226 37.6912C25.2833 37.8102 24.6803 37.1044 24.9133 36.3928L34.3101 7.69227Z" fill="#386A00"/>
<rect x="18.2513" y="6.39511" width="21.831" height="34.9296" rx="1" transform="rotate(-7.5248 18.2513 6.39511)" fill="#58CC02"/>
<mask id="mask0_161_522" style="mask-type:alpha" maskUnits="userSpaceOnUse" x="18" y="3" width="27" height="38">
<rect x="18.2513" y="6.39511" width="21.831" height="34.9296" rx="2" transform="rotate(-7.5248 18.2513 6.39511)" fill="#58CC02"/>
</mask>
<g mask="url(#mask0_161_522)">
<path fill-rule="evenodd" clip-rule="evenodd" d="M29.995 22.9119C29.9926 22.9165 29.9902 22.9213 29.9878 22.9263C29.906 23.0911 29.7992 23.3582 29.6767 23.7445C29.4325 24.5144 29.198 25.5243 28.9772 26.6326C28.77 27.6729 28.5873 28.7347 28.4237 29.6858C28.4146 29.7384 28.4056 29.7906 28.3967 29.8425L28.3928 29.8648C28.2347 30.7836 28.0748 31.7121 27.9291 32.273C27.681 33.2277 27.1125 33.9304 26.6252 34.4038C26.122 34.8926 25.5367 35.299 24.9898 35.6325C24.0951 36.1782 23.0424 36.6794 22.1963 37.0823C22.0284 37.1622 21.8687 37.2383 21.7199 37.3101C20.5387 37.8799 19.1208 37.3509 18.553 36.1284C17.9851 34.9059 18.4823 33.4529 19.6635 32.8831C19.8564 32.79 20.047 32.699 20.2347 32.6094C21.0792 32.2062 21.8642 31.8315 22.5343 31.4228C22.933 31.1797 23.1936 30.9808 23.3455 30.8332C23.3593 30.8198 23.3713 30.8077 23.3816 30.797C23.4608 30.4401 23.5709 29.8188 23.7231 28.9348C23.7327 28.8788 23.7425 28.8222 23.7523 28.7648C23.914 27.8248 24.1069 26.7036 24.3274 25.5969C24.5592 24.4332 24.8358 23.2114 25.1632 22.179C25.3265 21.6641 25.5207 21.1375 25.7553 20.6645C25.9657 20.2403 26.3209 19.6233 26.9016 19.16C27.7139 18.5121 29.5978 17.2616 31.2891 16.2005C32.1545 15.6576 33.0158 15.1352 33.7217 14.7331C34.0723 14.5333 34.4059 14.351 34.6931 14.2077L34.6987 14.2049C34.8923 14.1083 35.332 13.8889 35.7743 13.8006C36.1461 13.7263 36.5897 13.7081 36.9058 13.7001C37.2745 13.6909 37.694 13.6928 38.1082 13.7003C38.9389 13.7153 39.8218 13.7541 40.3856 13.7853C41.6951 13.8577 42.7122 15.0083 42.6574 16.3551C42.6026 17.702 41.4967 18.735 40.1872 18.6625C39.6648 18.6336 38.841 18.5976 38.0815 18.5839C37.7007 18.577 37.3542 18.5761 37.0783 18.583C36.973 18.5857 36.8932 18.5892 36.8355 18.5924C36.8258 18.5972 36.8156 18.6022 36.8047 18.6076C36.6254 18.6971 36.3742 18.8329 36.0581 19.013C35.4303 19.3707 34.6296 19.8555 33.7947 20.3793C32.2212 21.3664 30.6805 22.3952 29.995 22.9119ZM23.4361 30.734C23.4362 30.734 23.4348 30.7362 23.4315 30.7404C23.4343 30.7361 23.436 30.734 23.4361 30.734ZM30.0396 22.8302C30.0452 22.8211 30.0481 22.8171 30.0482 22.8173C30.0482 22.8175 30.0454 22.8221 30.0396 22.8302Z" fill="#A5ED6E"/>
</g>
<path d="M26.307 27.3171L27.3777 28.1467C27.7158 28.4087 28.1631 28.5298 28.5631 28.479C28.9632 28.4283 29.366 28.1993 29.628 27.8612L34.773 21.2212L34.7114 18.3327C34.717 17.9762 34.4039 17.7111 34.0538 17.7555C34.0288 17.7587 34.0038 17.7618 33.9788 17.765L31.1664 18.4267L26.0215 25.0667C25.4757 25.7711 25.6026 26.7713 26.307 27.3171ZM31.8624 19.5071L33.5155 19.1195L33.553 20.817L31.0747 24.0446L30.3979 24.918L28.6792 23.5863L29.356 22.7128L31.8624 19.5071ZM26.9795 25.809L27.9369 24.5443L29.6556 25.876L28.67 27.1189C28.5827 27.2316 28.4609 27.2725 28.4109 27.2789C28.3608 27.2852 28.2327 27.276 28.12 27.1887L27.0493 26.3591C26.8802 26.2281 26.8485 25.9781 26.9795 25.809Z" fill="white"/>
<path d="M25.3394 16.5363C25.3862 16.1196 25.9611 16.0467 26.1104 16.4385L26.5212 17.5165C26.5745 17.6564 26.7015 17.7548 26.8502 17.7715L27.9967 17.9001C28.4134 17.9468 28.4863 18.5217 28.0945 18.671L27.0165 19.0818C26.8766 19.1351 26.7782 19.2621 26.7615 19.4109L26.6329 20.5574C26.5862 20.974 26.0113 21.047 25.862 20.6552L25.4512 19.5771C25.3979 19.4372 25.2709 19.3388 25.1221 19.3222L23.9756 19.1936C23.559 19.1468 23.486 18.5719 23.8778 18.4226L24.9559 18.0118C25.0958 17.9585 25.1941 17.8315 25.2108 17.6827L25.3394 16.5363Z" fill="white"/>
<path fill-rule="evenodd" clip-rule="evenodd" d="M25.7795 16.9175L25.6876 17.7362C25.6509 18.0635 25.4345 18.3429 25.1267 18.4601L24.3568 18.7535L25.1756 18.8454C25.5029 18.8821 25.7822 19.0985 25.8995 19.4063L26.1929 20.1762L26.2847 19.3574C26.3214 19.0301 26.5379 18.7508 26.8456 18.6335L27.6155 18.3401L26.7968 18.2483C26.4695 18.2116 26.1901 17.9951 26.0729 17.6874L25.7795 16.9175ZM26.1104 16.4385C25.9611 16.0467 25.3862 16.1196 25.3394 16.5363L25.2108 17.6827C25.1941 17.8315 25.0958 17.9585 24.9559 18.0118L23.8778 18.4226C23.486 18.5719 23.559 19.1468 23.9756 19.1936L25.1221 19.3222C25.2709 19.3388 25.3979 19.4372 25.4512 19.5771L25.862 20.6552C26.0113 21.047 26.5862 20.974 26.6329 20.5574L26.7615 19.4109C26.7782 19.2621 26.8766 19.1351 27.0165 19.0818L28.0945 18.671C28.4863 18.5217 28.4134 17.9468 27.9967 17.9001L26.8502 17.7715C26.7015 17.7548 26.5745 17.6564 26.5212 17.5165L26.1104 16.4385Z" fill="white"/>
<path d="M35.485 24.7747C35.52 24.4623 35.9512 24.4075 36.0632 24.7014L36.3713 25.5099C36.4113 25.6148 36.5065 25.6886 36.6181 25.7012L37.4779 25.7976C37.7904 25.8327 37.8451 26.2638 37.5513 26.3758L36.7427 26.6839C36.6378 26.7239 36.564 26.8191 36.5515 26.9307L36.4551 27.7906C36.42 28.1031 35.9888 28.1578 35.8769 27.8639L35.5687 27.0554C35.5288 26.9505 35.4335 26.8767 35.322 26.8642L34.4621 26.7677C34.1496 26.7327 34.0949 26.3015 34.3887 26.1895L35.1973 25.8814C35.3022 25.8414 35.376 25.7462 35.3885 25.6346L35.485 24.7747Z" fill="white"/>
<path fill-rule="evenodd" clip-rule="evenodd" d="M35.815 25.0606L35.7461 25.6747C35.7186 25.9202 35.5562 26.1297 35.3254 26.2177L34.748 26.4377L35.3621 26.5066C35.6075 26.5341 35.817 26.6964 35.905 26.9273L36.125 27.5047L36.1939 26.8906C36.2215 26.6451 36.3838 26.4356 36.6146 26.3477L37.192 26.1276L36.578 26.0588C36.3325 26.0312 36.123 25.8689 36.035 25.6381L35.815 25.0606ZM36.0632 24.7014C35.9512 24.4075 35.52 24.4623 35.485 24.7747L35.3885 25.6346C35.376 25.7462 35.3022 25.8414 35.1973 25.8814L34.3887 26.1895C34.0949 26.3015 34.1496 26.7327 34.4621 26.7677L35.322 26.8642C35.4335 26.8767 35.5288 26.9505 35.5687 27.0554L35.8769 27.8639C35.9888 28.1578 36.42 28.1031 36.4551 27.7906L36.5515 26.9307C36.564 26.8191 36.6378 26.7239 36.7427 26.6839L37.5513 26.3758C37.8451 26.2638 37.7904 25.8327 37.4779 25.7976L36.6181 25.7012C36.5065 25.6886 36.4113 25.6148 36.3713 25.5099L36.0632 24.7014Z" fill="white"/>
<path d="M36.3932 15.4261C36.4346 15.7523 36.2037 16.0503 35.8775 16.0916C35.5513 16.133 35.2533 15.9021 35.2119 15.5759C35.1705 15.2497 35.4014 14.9517 35.7276 14.9103C36.0538 14.8689 36.3518 15.0998 36.3932 15.4261Z" fill="white"/>
<path d="M30.4866 16.1754C30.528 16.5016 30.2971 16.7996 29.9709 16.841C29.6447 16.8824 29.3467 16.6515 29.3053 16.3252C29.2639 15.999 29.4948 15.701 29.821 15.6597C30.1473 15.6183 30.4452 15.8492 30.4866 16.1754Z" fill="white"/>
<path d="M25.9201 22.7563C25.9614 23.0825 25.7305 23.3805 25.4043 23.4219C25.0781 23.4633 24.7801 23.2324 24.7387 22.9062C24.6974 22.58 24.9283 22.282 25.2545 22.2406C25.5807 22.1992 25.8787 22.4301 25.9201 22.7563Z" fill="white"/>
<path d="M43.2006 37.4512L39.4903 37.8157C39.1356 37.8505 38.9159 37.4392 39.142 37.1638L42.4879 33.089C42.7141 32.8136 43.1603 32.949 43.1951 33.3037L43.5596 37.0141C43.5812 37.2339 43.4205 37.4296 43.2006 37.4512Z" fill="#A5ED6E"/>
<path d="M0 18.6288C0 16.7172 0 15.7615 0.439718 15.0313C0.826504 14.3891 1.44368 13.8669 2.20279 13.5397C3.06579 13.1677 4.19551 13.1677 6.45496 13.1677H46.2157C48.4751 13.1677 49.6049 13.1677 50.4678 13.5397C51.227 13.8669 51.8441 14.3891 52.2309 15.0313C52.6706 15.7615 52.6706 16.7172 52.6706 18.6288V38.8047C52.6706 40.7162 52.6706 41.672 52.2309 42.4021C51.8441 43.0444 51.227 43.5665 50.4678 43.8938C49.6049 44.2658 48.4751 44.2658 46.2157 44.2658H6.45496C4.19551 44.2658 3.06579 44.2658 2.20279 43.8938C1.44368 43.5665 0.826504 43.0444 0.439718 42.4021C0 41.672 0 40.7162 0 38.8047V18.6288Z" fill="#1899D6"/>
<path d="M0.5 18.6288C0.5 17.6633 0.500542 16.9747 0.552649 16.4351C0.603904 15.9044 0.701715 15.5655 0.868038 15.2893C1.19541 14.7457 1.72721 14.2892 2.40072 13.9989C2.75781 13.8449 3.19201 13.7578 3.83968 13.713C4.49117 13.668 5.31824 13.6677 6.45496 13.6677H46.2157C47.3524 13.6677 48.1795 13.668 48.831 13.713C49.4786 13.7578 49.9128 13.8449 50.2699 13.9989C50.9434 14.2892 51.4752 14.7457 51.8026 15.2893C51.9689 15.5655 52.0667 15.9044 52.118 16.4351C52.1701 16.9747 52.1706 17.6633 52.1706 18.6288V38.8047C52.1706 39.7702 52.1701 40.4588 52.118 40.9984C52.0667 41.5291 51.9689 41.868 51.8026 42.1442C51.4752 42.6878 50.9434 43.1443 50.2699 43.4346C49.9128 43.5885 49.4786 43.6757 48.831 43.7205C48.1795 43.7655 47.3524 43.7658 46.2157 43.7658H6.45496C5.31824 43.7658 4.49117 43.7655 3.83968 43.7205C3.19201 43.6757 2.75781 43.5885 2.40072 43.4346C1.72721 43.1443 1.19541 42.6878 0.868038 42.1442C0.701715 41.868 0.603904 41.5291 0.552649 40.9984C0.500542 40.4588 0.5 39.7702 0.5 38.8047V18.6288Z" stroke="url(#paint1_linear_161_522)" stroke-opacity="0.07"/>
<defs>
<linearGradient id="paint0_linear_161_522" x1="26.3353" y1="5.32313" x2="26.3353" y2="10.4501" gradientUnits="userSpaceOnUse">
<stop stop-color="#2E2E2E"/>
<stop offset="1" stop-color="#303030" stop-opacity="0"/>
</linearGradient>
<linearGradient id="paint1_linear_161_522" x1="26.3353" y1="16.6931" x2="26.3353" y2="20.0887" gradientUnits="userSpaceOnUse">
<stop stop-color="#2E2E2E"/>
<stop offset="1" stop-color="#303030" stop-opacity="0"/>
</linearGradient>
</defs>
</svg>
