<svg width="24" height="24" viewBox="0 0 24 24" fill="none" xmlns="http://www.w3.org/2000/svg">
<path fill-rule="evenodd" clip-rule="evenodd" d="M4.39047 7.5088C4.00868 8.03801 3.82228 8.46232 3.77184 8.71384C3.67542 9.19459 3.2045 9.50675 2.72002 9.41107C2.23554 9.31539 1.92095 8.8481 2.01738 8.36735C2.13734 7.76922 2.47984 7.10769 2.93591 6.47552C3.40254 5.82871 4.03 5.15453 4.78933 4.5326C6.30499 3.29121 8.40001 2.21533 10.8689 2.02961C16.5853 1.59959 19.4952 5.96695 20.5737 7.71823C20.8313 8.13649 20.6984 8.68276 20.2769 8.93836C19.8554 9.19395 19.3049 9.06208 19.0473 8.64381C17.9765 6.90511 15.5827 3.4552 11.0041 3.79963C8.98054 3.95185 7.22504 4.8393 5.92807 5.90158C5.28109 6.43149 4.7617 6.99424 4.39047 7.5088Z" fill="url(#paint0_linear_2020_512)"/>
<path fill-rule="evenodd" clip-rule="evenodd" d="M4.39047 7.5088C4.00868 8.03801 3.82228 8.46232 3.77184 8.71384C3.67542 9.19459 3.2045 9.50675 2.72002 9.41107C2.23554 9.31539 1.92095 8.8481 2.01738 8.36735C2.13734 7.76922 2.47984 7.10769 2.93591 6.47552C3.40254 5.82871 4.03 5.15453 4.78933 4.5326C6.30499 3.29121 8.40001 2.21533 10.8689 2.02961C16.5853 1.59959 19.4952 5.96695 20.5737 7.71823C20.8313 8.13649 20.6984 8.68276 20.2769 8.93836C19.8554 9.19395 19.3049 9.06208 19.0473 8.64381C17.9765 6.90511 15.5827 3.4552 11.0041 3.79963C8.98054 3.95185 7.22504 4.8393 5.92807 5.90158C5.28109 6.43149 4.7617 6.99424 4.39047 7.5088Z" fill="url(#paint1_linear_2020_512)" fill-opacity="0.2"/>
<path fill-rule="evenodd" clip-rule="evenodd" d="M21.2379 4.68563C21.7265 4.75824 22.0632 5.21009 21.99 5.69486L21.5812 8.40323C21.4151 9.50342 20.3252 10.2185 19.24 9.93943L16.6132 9.26381C16.135 9.14082 15.8478 8.65646 15.9718 8.18197C16.0957 7.70747 16.5838 7.42251 17.062 7.5455L19.6888 8.22112C19.7459 8.23581 19.8033 8.19817 19.812 8.14027L20.2209 5.4319C20.2941 4.94713 20.7494 4.61301 21.2379 4.68563Z" fill="url(#paint2_linear_2020_512)"/>
<path fill-rule="evenodd" clip-rule="evenodd" d="M21.2379 4.68563C21.7265 4.75824 22.0632 5.21009 21.99 5.69486L21.5812 8.40323C21.4151 9.50342 20.3252 10.2185 19.24 9.93943L16.6132 9.26381C16.135 9.14082 15.8478 8.65646 15.9718 8.18197C16.0957 7.70747 16.5838 7.42251 17.062 7.5455L19.6888 8.22112C19.7459 8.23581 19.8033 8.19817 19.812 8.14027L20.2209 5.4319C20.2941 4.94713 20.7494 4.61301 21.2379 4.68563Z" fill="url(#paint3_linear_2020_512)" fill-opacity="0.2"/>
<path fill-rule="evenodd" clip-rule="evenodd" d="M19.6095 16.4912C19.9913 15.962 20.1777 15.5377 20.2282 15.2862C20.3246 14.8054 20.7955 14.4932 21.28 14.5889C21.7645 14.6846 22.079 15.1519 21.9826 15.6326C21.8627 16.2308 21.5202 16.8923 21.0641 17.5245C20.5975 18.1713 19.97 18.8455 19.2107 19.4674C17.695 20.7088 15.6 21.7847 13.1311 21.9704C7.41466 22.4004 4.50477 18.0331 3.42628 16.2818C3.16871 15.8635 3.3016 15.3172 3.72311 15.0616C4.14463 14.806 4.69514 14.9379 4.95271 15.3562C6.02345 17.0949 8.41727 20.5448 12.9959 20.2004C15.0195 20.0482 16.775 19.1607 18.0719 18.0984C18.7189 17.5685 19.2383 17.0058 19.6095 16.4912Z" fill="url(#paint4_linear_2020_512)"/>
<path fill-rule="evenodd" clip-rule="evenodd" d="M19.6095 16.4912C19.9913 15.962 20.1777 15.5377 20.2282 15.2862C20.3246 14.8054 20.7955 14.4932 21.28 14.5889C21.7645 14.6846 22.079 15.1519 21.9826 15.6326C21.8627 16.2308 21.5202 16.8923 21.0641 17.5245C20.5975 18.1713 19.97 18.8455 19.2107 19.4674C17.695 20.7088 15.6 21.7847 13.1311 21.9704C7.41466 22.4004 4.50477 18.0331 3.42628 16.2818C3.16871 15.8635 3.3016 15.3172 3.72311 15.0616C4.14463 14.806 4.69514 14.9379 4.95271 15.3562C6.02345 17.0949 8.41727 20.5448 12.9959 20.2004C15.0195 20.0482 16.775 19.1607 18.0719 18.0984C18.7189 17.5685 19.2383 17.0058 19.6095 16.4912Z" fill="url(#paint5_linear_2020_512)" fill-opacity="0.2"/>
<path fill-rule="evenodd" clip-rule="evenodd" d="M2.76205 19.3144C2.27352 19.2418 1.93681 18.7899 2.00999 18.3051L2.41884 15.5968C2.58492 14.4966 3.67479 13.7815 4.76003 14.0606L7.38684 14.7362C7.86502 14.8592 8.15219 15.3435 8.02824 15.818C7.9043 16.2925 7.41618 16.5775 6.938 16.4545L4.31119 15.7789C4.25407 15.7642 4.19671 15.8018 4.18797 15.8597L3.77912 18.5681C3.70594 19.0529 3.25059 19.387 2.76205 19.3144Z" fill="url(#paint6_linear_2020_512)"/>
<path fill-rule="evenodd" clip-rule="evenodd" d="M2.76205 19.3144C2.27352 19.2418 1.93681 18.7899 2.00999 18.3051L2.41884 15.5968C2.58492 14.4966 3.67479 13.7815 4.76003 14.0606L7.38684 14.7362C7.86502 14.8592 8.15219 15.3435 8.02824 15.818C7.9043 16.2925 7.41618 16.5775 6.938 16.4545L4.31119 15.7789C4.25407 15.7642 4.19671 15.8018 4.18797 15.8597L3.77912 18.5681C3.70594 19.0529 3.25059 19.387 2.76205 19.3144Z" fill="url(#paint7_linear_2020_512)" fill-opacity="0.2"/>
<mask id="path-2-inside-1_2020_512" fill="white">
<path d="M11.5105 9.38496C11.635 8.87168 12.365 8.87168 12.4895 9.38496L12.8319 10.7973C12.8764 10.9805 13.0195 11.1236 13.2027 11.1681L14.615 11.5105C15.1283 11.635 15.1283 12.365 14.615 12.4895L13.2027 12.8319C13.0195 12.8764 12.8764 13.0195 12.8319 13.2027L12.4895 14.615C12.365 15.1283 11.635 15.1283 11.5105 14.615L11.1681 13.2027C11.1236 13.0195 10.9805 12.8764 10.7973 12.8319L9.38496 12.4895C9.35288 12.4817 9.32281 12.4715 9.29474 12.4593C8.87368 12.2761 8.90376 11.6272 9.38496 11.5105L10.7973 11.1681C10.9805 11.1236 11.1236 10.9805 11.1681 10.7973L11.5105 9.38496Z"/>
<path d="M15 16C15 16.5523 15.4477 17 16 17C16.5523 17 17 16.5523 17 16C17 15.4477 16.5523 15 16 15C15.4477 15 15 15.4477 15 16Z"/>
<path d="M7 8C7 8.55228 7.44772 9 8 9C8.55229 9 9 8.55228 9 8C9 7.44771 8.55229 7 8 7C7.44772 7 7 7.44771 7 8Z"/>
</mask>
<path d="M12.4895 9.38496L17.3486 8.20668V8.20668L12.4895 9.38496ZM11.5105 9.38496L16.3697 10.5632V10.5632L11.5105 9.38496ZM12.8319 10.7973L7.97275 11.9756L7.97275 11.9756L12.8319 10.7973ZM13.2027 11.1681L14.381 6.30888L14.381 6.30888L13.2027 11.1681ZM14.615 11.5105L13.4368 16.3697H13.4368L14.615 11.5105ZM14.615 12.4895L15.7933 17.3486L15.7933 17.3486L14.615 12.4895ZM13.2027 12.8319L12.0244 7.97275L12.0244 7.97275L13.2027 12.8319ZM12.8319 13.2027L17.6911 14.381L17.6911 14.381L12.8319 13.2027ZM12.4895 14.615L17.3486 15.7933V15.7933L12.4895 14.615ZM11.5105 14.615L6.65135 15.7933L6.65135 15.7933L11.5105 14.615ZM11.1681 13.2027L16.0272 12.0244L16.0272 12.0244L11.1681 13.2027ZM10.7973 12.8319L9.61901 17.6911L9.61901 17.6911L10.7973 12.8319ZM9.38496 12.4895L10.5632 7.63028L10.5632 7.63028L9.38496 12.4895ZM9.29474 12.4593L11.2897 7.87456L11.2897 7.87456L9.29474 12.4593ZM9.38496 11.5105L8.20668 6.65135L8.20668 6.65135L9.38496 11.5105ZM10.7973 11.1681L11.9756 16.0272L11.9756 16.0272L10.7973 11.1681ZM11.1681 10.7973L6.30888 9.61901L6.30888 9.61901L11.1681 10.7973ZM17.3486 8.20668C15.9886 2.59776 8.01143 2.59779 6.65135 8.20668L16.3697 10.5632C15.2586 15.1456 8.74144 15.1456 7.63028 10.5632L17.3486 8.20668ZM17.6911 9.61901L17.3486 8.20668L7.63028 10.5632L7.97275 11.9756L17.6911 9.61901ZM14.381 6.30888C16.017 6.7056 17.2944 7.98298 17.6911 9.619L7.97275 11.9756C8.45834 13.9781 10.0219 15.5417 12.0244 16.0272L14.381 6.30888ZM15.7933 6.65135L14.381 6.30888L12.0244 16.0272L13.4368 16.3697L15.7933 6.65135ZM15.7933 17.3486C21.4022 15.9886 21.4022 8.01143 15.7933 6.65135L13.4368 16.3697C8.85442 15.2586 8.85441 8.74144 13.4368 7.63028L15.7933 17.3486ZM14.381 17.6911L15.7933 17.3486L13.4368 7.63028L12.0244 7.97275L14.381 17.6911ZM17.6911 14.381C17.2944 16.017 16.017 17.2944 14.381 17.6911L12.0244 7.97275C10.0219 8.45834 8.45834 10.0219 7.97275 12.0244L17.6911 14.381ZM7.97275 12.0244L7.63028 13.4368L17.3486 15.7933L17.6911 14.381L7.97275 12.0244ZM6.65135 15.7933C8.01143 21.4022 15.9886 21.4022 17.3486 15.7933L7.63028 13.4368C8.74143 8.85442 15.2586 8.85441 16.3697 13.4368L6.65135 15.7933ZM6.30888 14.381L6.65135 15.7933L16.3697 13.4368L16.0272 12.0244L6.30888 14.381ZM9.61901 17.6911C7.98297 17.2944 6.7056 16.017 6.30889 14.381L16.0272 12.0244C15.5417 10.0219 13.9781 8.45834 11.9756 7.97275L9.61901 17.6911ZM8.20668 17.3486L9.61901 17.6911L11.9756 7.97275L10.5632 7.63028L8.20668 17.3486ZM7.29976 17.0441C7.59804 17.1739 7.90183 17.2747 8.20669 17.3486L10.5632 7.63028C10.8039 7.68865 11.0476 7.7692 11.2897 7.87456L7.29976 17.0441ZM8.20668 6.65135C2.84206 7.9522 2.69744 15.0415 7.29978 17.0441L11.2897 7.87456C15.0499 9.51074 14.9655 15.3022 10.5632 16.3697L8.20668 6.65135ZM9.61901 6.30888L8.20668 6.65135L10.5632 16.3697L11.9756 16.0272L9.61901 6.30888ZM6.30888 9.61901C6.7056 7.98297 7.98297 6.7056 9.619 6.30889L11.9756 16.0272C13.9781 15.5417 15.5417 13.9781 16.0272 11.9756L6.30888 9.61901ZM6.65135 8.20668L6.30888 9.61901L16.0272 11.9756L16.3697 10.5632L6.65135 8.20668ZM10 16C10 19.3137 12.6863 22 16 22V12C18.2091 12 20 13.7909 20 16H10ZM16 22C19.3137 22 22 19.3137 22 16H12C12 13.7909 13.7909 12 16 12V22ZM22 16C22 12.6863 19.3137 10 16 10V20C13.7909 20 12 18.2091 12 16H22ZM16 10C12.6863 10 10 12.6863 10 16H20C20 18.2091 18.2091 20 16 20V10ZM2 8C2 11.3137 4.6863 14 8 14V4C10.2091 4 12 5.79086 12 8H2ZM8 14C11.3137 14 14 11.3137 14 8H4C4 5.79086 5.79086 4 8 4V14ZM14 8C14 4.68629 11.3137 2 8 2V12C5.79086 12 4 10.2091 4 8H14ZM8 2C4.68629 2 2 4.68629 2 8H12C12 10.2091 10.2091 12 8 12V2Z" fill="url(#paint8_linear_2020_512)" mask="url(#path-2-inside-1_2020_512)"/>
<path d="M12.4895 9.38496L17.3486 8.20668V8.20668L12.4895 9.38496ZM11.5105 9.38496L16.3697 10.5632V10.5632L11.5105 9.38496ZM12.8319 10.7973L7.97275 11.9756L7.97275 11.9756L12.8319 10.7973ZM13.2027 11.1681L14.381 6.30888L14.381 6.30888L13.2027 11.1681ZM14.615 11.5105L13.4368 16.3697H13.4368L14.615 11.5105ZM14.615 12.4895L15.7933 17.3486L15.7933 17.3486L14.615 12.4895ZM13.2027 12.8319L12.0244 7.97275L12.0244 7.97275L13.2027 12.8319ZM12.8319 13.2027L17.6911 14.381L17.6911 14.381L12.8319 13.2027ZM12.4895 14.615L17.3486 15.7933V15.7933L12.4895 14.615ZM11.5105 14.615L6.65135 15.7933L6.65135 15.7933L11.5105 14.615ZM11.1681 13.2027L16.0272 12.0244L16.0272 12.0244L11.1681 13.2027ZM10.7973 12.8319L9.61901 17.6911L9.61901 17.6911L10.7973 12.8319ZM9.38496 12.4895L10.5632 7.63028L10.5632 7.63028L9.38496 12.4895ZM9.29474 12.4593L11.2897 7.87456L11.2897 7.87456L9.29474 12.4593ZM9.38496 11.5105L8.20668 6.65135L8.20668 6.65135L9.38496 11.5105ZM10.7973 11.1681L11.9756 16.0272L11.9756 16.0272L10.7973 11.1681ZM11.1681 10.7973L6.30888 9.61901L6.30888 9.61901L11.1681 10.7973ZM17.3486 8.20668C15.9886 2.59776 8.01143 2.59779 6.65135 8.20668L16.3697 10.5632C15.2586 15.1456 8.74144 15.1456 7.63028 10.5632L17.3486 8.20668ZM17.6911 9.61901L17.3486 8.20668L7.63028 10.5632L7.97275 11.9756L17.6911 9.61901ZM14.381 6.30888C16.017 6.7056 17.2944 7.98298 17.6911 9.619L7.97275 11.9756C8.45834 13.9781 10.0219 15.5417 12.0244 16.0272L14.381 6.30888ZM15.7933 6.65135L14.381 6.30888L12.0244 16.0272L13.4368 16.3697L15.7933 6.65135ZM15.7933 17.3486C21.4022 15.9886 21.4022 8.01143 15.7933 6.65135L13.4368 16.3697C8.85442 15.2586 8.85441 8.74144 13.4368 7.63028L15.7933 17.3486ZM14.381 17.6911L15.7933 17.3486L13.4368 7.63028L12.0244 7.97275L14.381 17.6911ZM17.6911 14.381C17.2944 16.017 16.017 17.2944 14.381 17.6911L12.0244 7.97275C10.0219 8.45834 8.45834 10.0219 7.97275 12.0244L17.6911 14.381ZM7.97275 12.0244L7.63028 13.4368L17.3486 15.7933L17.6911 14.381L7.97275 12.0244ZM6.65135 15.7933C8.01143 21.4022 15.9886 21.4022 17.3486 15.7933L7.63028 13.4368C8.74143 8.85442 15.2586 8.85441 16.3697 13.4368L6.65135 15.7933ZM6.30888 14.381L6.65135 15.7933L16.3697 13.4368L16.0272 12.0244L6.30888 14.381ZM9.61901 17.6911C7.98297 17.2944 6.7056 16.017 6.30889 14.381L16.0272 12.0244C15.5417 10.0219 13.9781 8.45834 11.9756 7.97275L9.61901 17.6911ZM8.20668 17.3486L9.61901 17.6911L11.9756 7.97275L10.5632 7.63028L8.20668 17.3486ZM7.29976 17.0441C7.59804 17.1739 7.90183 17.2747 8.20669 17.3486L10.5632 7.63028C10.8039 7.68865 11.0476 7.7692 11.2897 7.87456L7.29976 17.0441ZM8.20668 6.65135C2.84206 7.9522 2.69744 15.0415 7.29978 17.0441L11.2897 7.87456C15.0499 9.51074 14.9655 15.3022 10.5632 16.3697L8.20668 6.65135ZM9.61901 6.30888L8.20668 6.65135L10.5632 16.3697L11.9756 16.0272L9.61901 6.30888ZM6.30888 9.61901C6.7056 7.98297 7.98297 6.7056 9.619 6.30889L11.9756 16.0272C13.9781 15.5417 15.5417 13.9781 16.0272 11.9756L6.30888 9.61901ZM6.65135 8.20668L6.30888 9.61901L16.0272 11.9756L16.3697 10.5632L6.65135 8.20668ZM10 16C10 19.3137 12.6863 22 16 22V12C18.2091 12 20 13.7909 20 16H10ZM16 22C19.3137 22 22 19.3137 22 16H12C12 13.7909 13.7909 12 16 12V22ZM22 16C22 12.6863 19.3137 10 16 10V20C13.7909 20 12 18.2091 12 16H22ZM16 10C12.6863 10 10 12.6863 10 16H20C20 18.2091 18.2091 20 16 20V10ZM2 8C2 11.3137 4.6863 14 8 14V4C10.2091 4 12 5.79086 12 8H2ZM8 14C11.3137 14 14 11.3137 14 8H4C4 5.79086 5.79086 4 8 4V14ZM14 8C14 4.68629 11.3137 2 8 2V12C5.79086 12 4 10.2091 4 8H14ZM8 2C4.68629 2 2 4.68629 2 8H12C12 10.2091 10.2091 12 8 12V2Z" fill="url(#paint9_linear_2020_512)" fill-opacity="0.2" mask="url(#path-2-inside-1_2020_512)"/>
<defs>
<linearGradient id="paint0_linear_2020_512" x1="2" y1="12" x2="22" y2="12" gradientUnits="userSpaceOnUse">
<stop stop-color="#9069CD"/>
<stop offset="0.38" stop-color="#FFB2B2"/>
<stop offset="0.77" stop-color="#FFC800"/>
<stop offset="1" stop-color="#58CC02"/>
</linearGradient>
<linearGradient id="paint1_linear_2020_512" x1="2" y1="12" x2="22" y2="12" gradientUnits="userSpaceOnUse">
<stop stop-color="#6F4EA1"/>
<stop offset="0.38" stop-color="#FF4B4B"/>
<stop offset="0.77" stop-color="#FF9600"/>
<stop offset="1" stop-color="#58A700"/>
</linearGradient>
<linearGradient id="paint2_linear_2020_512" x1="2" y1="12" x2="22" y2="12" gradientUnits="userSpaceOnUse">
<stop stop-color="#9069CD"/>
<stop offset="0.38" stop-color="#FFB2B2"/>
<stop offset="0.77" stop-color="#FFC800"/>
<stop offset="1" stop-color="#58CC02"/>
</linearGradient>
<linearGradient id="paint3_linear_2020_512" x1="2" y1="12" x2="22" y2="12" gradientUnits="userSpaceOnUse">
<stop stop-color="#6F4EA1"/>
<stop offset="0.38" stop-color="#FF4B4B"/>
<stop offset="0.77" stop-color="#FF9600"/>
<stop offset="1" stop-color="#58A700"/>
</linearGradient>
<linearGradient id="paint4_linear_2020_512" x1="2" y1="12" x2="22" y2="12" gradientUnits="userSpaceOnUse">
<stop stop-color="#9069CD"/>
<stop offset="0.38" stop-color="#FFB2B2"/>
<stop offset="0.77" stop-color="#FFC800"/>
<stop offset="1" stop-color="#58CC02"/>
</linearGradient>
<linearGradient id="paint5_linear_2020_512" x1="2" y1="12" x2="22" y2="12" gradientUnits="userSpaceOnUse">
<stop stop-color="#6F4EA1"/>
<stop offset="0.38" stop-color="#FF4B4B"/>
<stop offset="0.77" stop-color="#FF9600"/>
<stop offset="1" stop-color="#58A700"/>
</linearGradient>
<linearGradient id="paint6_linear_2020_512" x1="2" y1="12" x2="22" y2="12" gradientUnits="userSpaceOnUse">
<stop stop-color="#9069CD"/>
<stop offset="0.38" stop-color="#FFB2B2"/>
<stop offset="0.77" stop-color="#FFC800"/>
<stop offset="1" stop-color="#58CC02"/>
</linearGradient>
<linearGradient id="paint7_linear_2020_512" x1="2" y1="12" x2="22" y2="12" gradientUnits="userSpaceOnUse">
<stop stop-color="#6F4EA1"/>
<stop offset="0.38" stop-color="#FF4B4B"/>
<stop offset="0.77" stop-color="#FF9600"/>
<stop offset="1" stop-color="#58A700"/>
</linearGradient>
<linearGradient id="paint8_linear_2020_512" x1="7" y1="12" x2="17" y2="12" gradientUnits="userSpaceOnUse">
<stop stop-color="#9069CD"/>
<stop offset="0.38" stop-color="#FFB2B2"/>
<stop offset="0.77" stop-color="#FFC800"/>
<stop offset="1" stop-color="#58CC02"/>
</linearGradient>
<linearGradient id="paint9_linear_2020_512" x1="7" y1="12" x2="17" y2="12" gradientUnits="userSpaceOnUse">
<stop stop-color="#6F4EA1"/>
<stop offset="0.38" stop-color="#FF4B4B"/>
<stop offset="0.77" stop-color="#FF9600"/>
<stop offset="1" stop-color="#58A700"/>
</linearGradient>
</defs>
</svg>
