<svg width="24" height="23" viewBox="0 0 24 23" fill="none" xmlns="http://www.w3.org/2000/svg">
<path fill-rule="evenodd" clip-rule="evenodd" d="M18.7071 5.07236C19.0976 5.44661 19.0976 6.05339 18.7071 6.42765L6.70711 17.9276C6.31658 18.3019 5.68342 18.3019 5.29289 17.9276C4.90237 17.5534 4.90237 16.9466 5.29289 16.5724L17.2929 5.07236C17.6834 4.6981 18.3166 4.6981 18.7071 5.07236Z" fill="#4B4B4B"/>
<path fill-rule="evenodd" clip-rule="evenodd" d="M5.29289 5.07236C5.68342 4.6981 6.31658 4.6981 6.70711 5.07236L18.7071 16.5724C19.0976 16.9466 19.0976 17.5534 18.7071 17.9276C18.3166 18.3019 17.6834 18.3019 17.2929 17.9276L5.29289 6.42765C4.90237 6.05339 4.90237 5.44661 5.29289 5.07236Z" fill="#4B4B4B"/>
</svg>
