<svg width="98" height="86" viewBox="0 0 98 86" fill="none" xmlns="http://www.w3.org/2000/svg">
<path fill-rule="evenodd" clip-rule="evenodd" d="M52.5188 24.3134L38.5188 19.8134L27.0188 28.8134L42.7379 35.3134H42.5189C36.9961 35.3134 32.5189 39.7905 32.5189 45.3134V59.3134C32.5189 64.8362 36.9961 69.3134 42.5189 69.3134L44.2689 70.5634L45.1941 71.2242C45.7426 71.616 46.3292 71.9513 46.9451 72.225L49.6041 73.4068C50.2124 73.6772 50.8463 73.8861 51.4962 74.0305L52.7689 74.3134L55.0189 74.8134L59.2689 75.3134L62.0596 75.6417C63.0273 75.7555 64.0064 75.7273 64.9659 75.558L67.7689 75.0634L72.0189 74.3134L75.5189 73.3134L78.1253 72.5687C78.7197 72.3988 79.2972 72.1742 79.8502 71.8977L81.5189 71.0634L84.0189 69.8134L86.5189 68.5634C88.0702 67.7877 89.1015 66.2559 89.2366 64.5268L91.5189 35.3134H74.5189L52.5188 24.3134Z" fill="#F7D0C1"/>
<path d="M28.4253 53.4999H40.4253V75.4999C40.4253 78.8136 37.739 81.4999 34.4253 81.4999C31.1116 81.4999 28.4253 78.8136 28.4253 75.4999V53.4999Z" fill="#F5C1AE"/>
<path d="M17.5189 49.3134H29.5189V75.3134C29.5189 78.6271 26.8326 81.3134 23.5189 81.3134C20.2052 81.3134 17.5189 78.6271 17.5189 75.3134V49.3134Z" fill="#F5C1AE"/>
<path d="M86.0189 35.3556H94.849C96.5163 35.3556 97.8637 36.7151 97.8488 38.3824L97.5323 73.8171C97.5239 74.7592 97.0733 75.6427 96.3156 76.2028L90.8021 80.278C88.8218 81.7416 86.0189 80.3279 86.0189 77.8654V35.3556Z" fill="#1CB0F6"/>
<path fill-rule="evenodd" clip-rule="evenodd" d="M30.2681 37.1823L15.0091 60.8906C13.037 63.9547 9.04396 64.9934 5.82874 63.2786L4.93804 62.8035C4.32867 62.4785 3.77075 62.0651 3.28241 61.5768L2.47565 60.77C0.162055 58.4564 -0.240181 54.8487 1.50702 52.0823L17.5797 26.6342C18.1615 25.7129 18.9122 24.9821 19.7605 24.4477C20.353 23.9141 21.046 23.4744 21.8234 23.1604L33.4442 18.4682C37.0616 17.0075 41.175 18.7858 42.589 22.4217L43.401 24.5095C44.7972 28.0995 43.0306 32.143 39.4479 33.5576L30.2681 37.1823Z" fill="#F5C1AE"/>
<path d="M9.3581 78.8402C7.80317 79.9939 5.67994 78.4855 6.25745 76.6375L9.42549 66.5L17.3665 69.9032C18.5012 70.3895 18.6811 71.9233 17.6896 72.6588L9.3581 78.8402Z" fill="#AFAFAF"/>
<path d="M8.53568 77.6123C7.85341 78.4652 6.49325 77.763 6.79329 76.7129L8.42558 71L9.75452 67.0131C9.86125 66.693 10.1223 66.4482 10.4487 66.3623L16.5011 64.7696C17.4329 64.5244 18.1384 65.609 17.5365 66.3613L8.53568 77.6123Z" fill="#E5E5E5"/>
<path d="M54.3769 2.9238C55.3335 1.57095 57.2056 1.24967 58.5584 2.20621L62.5632 5.03778C63.9222 5.99867 64.2392 7.8822 63.2696 9.235L17.9254 72.5L9.42542 66.5L54.3769 2.9238Z" fill="#FFB100"/>
<path d="M54.5876 2.62583C55.4406 1.41939 57.0884 1.09103 58.3387 1.87831C59.6809 2.72343 60.0451 4.51843 59.1384 5.81984L14.4255 70L9.42533 66.5L54.5876 2.62583Z" fill="#FFC800"/>
<path d="M54.3423 2.91251C55.2964 1.55268 57.1738 1.22698 58.5302 2.18598L62.719 5.14771C64.0998 6.124 64.4012 8.04805 63.3851 9.39983L58.4245 15.9992L49.3883 9.97357L54.3423 2.91251Z" fill="#F5A4A4"/>
<path d="M54.1341 2.7221C55.0986 1.25651 57.1095 0.927827 58.4905 2.01004L60.4211 3.52295L53.9256 13L49.3701 9.96071L54.1341 2.7221Z" fill="#FFB2B2"/>
<path d="M12.5189 61.3134C12.5189 56.8951 16.1006 53.3134 20.5189 53.3134H53.5189V69.3134H20.5189C16.1006 69.3134 12.5189 65.7316 12.5189 61.3134Z" fill="#F7D0C1"/>
</svg>
