<svg width="32" height="31" viewBox="0 0 32 31" fill="none" xmlns="http://www.w3.org/2000/svg">
<path d="M17.1282 27.9962C20.4197 26.4133 21.7995 22.5251 20.21 19.3118C18.6206 16.0985 14.6638 14.7768 11.3724 16.3598C8.08094 17.9427 6.70118 21.8308 8.29064 25.0441C9.88004 28.2574 13.8368 29.5791 17.1282 27.9962Z" fill="#FFAADE"/>
<path d="M19.6025 21.354L19.6732 21.3562C20.5928 21.3841 21.3154 22.1418 21.287 23.0486C21.2869 23.0531 21.2867 23.0576 21.2865 23.0622L21.0643 28.67C21.0287 29.5712 20.2627 30.2754 19.3485 30.2477L19.2777 30.2455C18.3581 30.2176 17.6356 29.4599 17.6639 28.5531C17.664 28.5486 17.6642 28.5441 17.6644 28.5395L17.8866 22.9318C17.9222 22.0305 18.6882 21.3263 19.6025 21.354Z" fill="#FFAADE"/>
<mask id="mask0_2206_452" style="mask-type:alpha" maskUnits="userSpaceOnUse" x="0" y="0" width="32" height="26">
<path d="M8.54515 1.74234C8.92328 1.58169 9.31926 1.44854 9.73134 1.34598C10.2642 1.21335 10.8098 1.13664 11.359 1.11713L20.797 0.781905C25.0457 0.63099 28.9857 2.96245 30.8495 6.73032C32.5423 10.1526 31.101 14.2801 27.6303 15.9492L26.9445 16.279C27.2159 16.8979 27.3833 17.5736 27.4237 18.286C27.4246 18.3001 27.4253 18.3141 27.426 18.3281L27.4315 18.4398C27.5906 21.6547 25.0893 24.3938 21.8301 24.5738L13.4839 25.0345C12.9682 25.063 12.4641 25.0257 11.9802 24.9301C7.57278 24.8619 3.37861 22.4341 1.32978 18.2921C-1.58449 12.4004 0.945313 5.27143 6.98024 2.3691C7.49418 2.12194 8.01697 1.9134 8.54515 1.74234Z" fill="white"/>
</mask>
<g mask="url(#mask0_2206_452)">
<path d="M8.54515 1.74234C8.92328 1.58169 9.31926 1.44854 9.73134 1.34598C10.2642 1.21335 10.8098 1.13664 11.359 1.11713L20.797 0.781905C25.0457 0.63099 28.9857 2.96245 30.8495 6.73032C32.5423 10.1526 31.101 14.2801 27.6303 15.9492L26.9445 16.279C27.2159 16.8979 27.3833 17.5736 27.4237 18.286C27.4246 18.3001 27.4253 18.3141 27.426 18.3281L27.4315 18.4398C27.5906 21.6547 25.0893 24.3938 21.8301 24.5738L13.4839 25.0345C12.9682 25.063 12.4641 25.0257 11.9802 24.9301C7.57278 24.8619 3.37861 22.4341 1.32978 18.2921C-1.58449 12.4004 0.945313 5.27143 6.98024 2.3691C7.49418 2.12194 8.01697 1.9134 8.54515 1.74234Z" fill="#FFAADE"/>
<path d="M28.1293 15.6285C28.3816 15.9544 28.3151 16.4211 27.9806 16.6709C27.646 16.9208 27.1703 16.8592 26.918 16.5333C26.0253 15.3805 24.923 14.7363 23.5761 14.5701C22.0962 14.3876 20.2704 14.4391 18.1035 14.7288C17.6879 14.7844 17.3077 14.4996 17.2543 14.0927C17.2009 13.686 17.4945 13.3111 17.9101 13.2555C20.1988 12.9495 22.1529 12.8945 23.7773 13.0949C25.5346 13.3115 26.9971 14.1663 28.1293 15.6285Z" fill="#E889C4"/>
<path d="M8.75224 16.0053C8.83956 15.6036 9.24174 15.3509 9.65045 15.441C10.0592 15.5311 10.3196 15.9297 10.2323 16.3314C9.91996 17.7678 10.8516 19.1932 12.3131 19.5153C12.9346 19.6522 13.5831 19.5697 14.1447 19.2824L14.2374 19.235C14.6067 19.046 15.0647 19.1893 15.2603 19.555C15.4558 19.9207 15.3149 20.3705 14.9456 20.5594L14.8529 20.6068C13.9771 21.0549 12.9659 21.1834 11.9968 20.9699C9.71789 20.4679 8.26525 18.2451 8.75224 16.0053Z" fill="#E889C4"/>
<path d="M8.67882 18.1829C8.9947 17.9107 9.47399 17.9393 9.74916 18.2467C10.0244 18.5542 9.9914 19.0241 9.67551 19.2962L4.50241 23.7526C4.18648 24.0247 3.70724 23.9961 3.43201 23.6887C3.15677 23.3813 3.18976 22.9114 3.50569 22.6392L8.67882 18.1829Z" fill="#E889C4"/>
<path d="M23.823 9.56296C23.8831 9.15616 24.2681 8.8715 24.6827 8.92722C25.0974 8.98295 25.3848 9.35789 25.3247 9.76469L24.8109 13.2399C24.7508 13.6467 24.3658 13.9314 23.9512 13.8757C23.5365 13.82 23.2491 13.445 23.3092 13.0382L23.823 9.56296Z" fill="#E889C4"/>
<path d="M10.0371 3.92808C10.0955 3.52102 10.4792 3.23478 10.8941 3.28873C11.309 3.34267 11.5981 3.71639 11.5398 4.12343C11.2736 5.98022 12.5923 7.68493 14.485 7.93103C15.4714 8.05921 16.4697 7.76433 17.2245 7.12175L18.1469 6.33661C18.4645 6.06629 18.9435 6.0977 19.2169 6.40677C19.4902 6.71584 19.4543 7.18553 19.1368 7.45585L18.2144 8.24103C17.1285 9.16537 15.6926 9.58953 14.2737 9.40508C11.5512 9.05106 9.65437 6.59895 10.0371 3.92808Z" fill="#E889C4"/>
</g>
</svg>
