<svg width="20" height="20" viewBox="0 0 20 20" fill="none" xmlns="http://www.w3.org/2000/svg">
<path d="M17.9216 6.77926C18.6797 6.77926 19.2157 6.93975 19.5294 7.26074C19.8431 7.58173 20 8.10173 20 8.82074V10.4385C20 11.1575 19.8431 11.6775 19.5294 11.9985C19.2157 12.3195 18.6797 12.48 17.9216 12.48H12.9804V17.2178C12.9804 17.9368 12.8235 18.4568 12.5098 18.7778C12.1961 19.0988 11.6601 19.2593 10.902 19.2593H9.09804C8.33987 19.2593 7.80392 19.0988 7.4902 18.7778C7.17647 18.4568 7.01961 17.9368 7.01961 17.2178V12.48H2.07843C1.34641 12.48 0.816993 12.3259 0.490196 12.0178C0.163399 11.7096 0 11.1832 0 10.4385V8.82074C0 8.07605 0.163399 7.54963 0.490196 7.24148C0.816993 6.93333 1.34641 6.77926 2.07843 6.77926H7.01961V2.04148C7.01961 1.29679 7.18301 0.77037 7.5098 0.462222C7.8366 0.154074 8.36601 0 9.09804 0H10.902C11.634 0 12.1634 0.154074 12.4902 0.462222C12.817 0.77037 12.9804 1.29679 12.9804 2.04148V6.77926H17.9216Z" fill="white"/>
</svg>
