<svg width="50" height="61" viewBox="0 0 50 61" fill="none" xmlns="http://www.w3.org/2000/svg">
<rect x="20.4797" y="3.01944" width="31.0669" height="49.8115" rx="2" transform="rotate(18.1548 20.4797 3.01944)" fill="#386A00"/>
<rect x="18.6513" y="2.24599" width="31.23" height="49.968" rx="2" transform="rotate(18.1548 18.6513 2.24599)" fill="#58A700"/>
<path d="M25.2354 6.69644C25.6776 5.91233 26.5892 5.5203 27.4625 5.73863L36.5969 8.02225C37.6443 8.2841 38.2949 9.32996 38.0667 10.3852L30.5024 45.3701C30.2974 46.3182 29.4417 46.9825 28.4725 46.9461L6.35215 46.1155C4.85564 46.0593 3.94949 44.4388 4.68515 43.1344L25.2354 6.69644Z" fill="#386A00"/>
<rect x="3.28419" y="-7.62939e-06" width="31.23" height="49.968" rx="3" transform="rotate(3.76847 3.28419 -7.62939e-06)" fill="#58CC02"/>
<mask id="mask0_159_332" style="mask-type:alpha" maskUnits="userSpaceOnUse" x="0" y="0" width="35" height="52">
<rect x="3.28414" width="31.23" height="49.968" rx="2" transform="rotate(3.76847 3.28414 0)" fill="#58CC02"/>
</mask>
<g mask="url(#mask0_159_332)">
<path fill-rule="evenodd" clip-rule="evenodd" d="M15.6919 23.6546C15.6873 23.6604 15.6826 23.6665 15.6777 23.6728C15.5169 23.8811 15.2922 24.2259 15.0122 24.7335C14.4539 25.7452 13.8421 27.0962 13.2218 28.5891C12.6397 29.9904 12.0859 31.4288 11.5899 32.7171C11.5625 32.7883 11.5352 32.8591 11.5082 32.9293L11.4965 32.9596C11.0172 34.2042 10.5329 35.462 10.1713 36.208C9.55582 37.4778 8.56151 38.3042 7.74524 38.8319C6.90246 39.3766 5.96752 39.7828 5.10685 40.0974C3.69889 40.6122 2.08159 41.0205 0.781837 41.3487C0.523929 41.4138 0.278524 41.4757 0.0497389 41.5347C-1.7669 42.0032 -3.60774 40.8638 -4.0619 38.9898C-4.51606 37.1158 -3.41156 35.2168 -1.59492 34.7483C-1.29819 34.6717 -1.00531 34.5975 -0.716944 34.5244C0.580738 34.1954 1.78702 33.8896 2.8415 33.504C3.46891 33.2746 3.89018 33.0686 4.14462 32.9042C4.16778 32.8892 4.18798 32.8756 4.20544 32.8634C4.41658 32.3849 4.74499 31.5442 5.20615 30.3467C5.23534 30.2709 5.26489 30.1942 5.29479 30.1165C5.785 28.8431 6.36966 27.3243 6.98901 25.8335C7.64023 24.266 8.37044 22.6294 9.11897 21.2729C9.4923 20.5963 9.91222 19.9119 10.3738 19.3141C10.7879 18.778 11.459 18.0119 12.4035 17.5248C13.7245 16.8434 16.7176 15.6169 19.3875 14.6022C20.7536 14.083 22.1082 13.5915 23.211 13.2251C23.7589 13.0431 24.278 12.8808 24.721 12.7603L24.7296 12.7579C25.0282 12.6766 25.7065 12.492 26.3518 12.492C26.8942 12.492 27.5216 12.5906 27.9673 12.6681C28.4871 12.7584 29.075 12.8786 29.6539 13.0051C30.8151 13.2589 32.0429 13.5606 32.825 13.7623C34.6417 14.2308 35.7462 16.1298 35.292 18.0038C34.8379 19.8779 32.997 21.0173 31.1804 20.5488C30.4556 20.3618 29.31 20.0806 28.2485 19.8486C27.7161 19.7322 27.2303 19.6339 26.8412 19.5663C26.6928 19.5405 26.58 19.5231 26.4981 19.5114C26.4832 19.5154 26.4674 19.5196 26.4507 19.5242C26.174 19.5995 25.7836 19.7196 25.2897 19.8837C24.3088 20.2095 23.0497 20.6653 21.7317 21.1662C19.2478 22.1103 16.7983 23.1218 15.6919 23.6546ZM4.29948 32.7904C4.29963 32.7904 4.29706 32.793 4.29134 32.798C4.29646 32.7928 4.29933 32.7903 4.29948 32.7904ZM15.7773 23.5526C15.7877 23.5414 15.793 23.5365 15.793 23.5368C15.793 23.5372 15.7878 23.5428 15.7773 23.5526Z" fill="#A5ED6E"/>
</g>
<path d="M8.72379 31.6069L9.99338 33.0707C10.3943 33.5329 10.9878 33.8281 11.5633 33.869C12.1387 33.9098 12.768 33.7015 13.2302 33.3006L22.3079 25.427L23.0307 21.3576C23.1384 20.8592 22.7735 20.3995 22.27 20.3638C22.234 20.3612 22.198 20.3587 22.1621 20.3561L18.0314 20.4964L8.95372 28.37C7.99072 29.2053 7.88853 30.6439 8.72379 31.6069ZM18.7051 22.2071L21.1327 22.1265L20.7097 24.5183L16.3289 28.3517L15.1348 29.3874L13.0968 27.0377L14.2909 26.002L18.7051 22.2071ZM10.0897 29.6797L11.7871 28.1737L13.8251 30.5234L12.0943 31.9909C11.9402 32.1245 11.7578 32.1477 11.6859 32.1426C11.614 32.1375 11.4367 32.0888 11.3031 31.9347L10.0335 30.4709C9.833 30.2398 9.85855 29.8802 10.0897 29.6797Z" fill="white"/>
<path d="M10.3867 16.2121C10.5689 15.6407 11.3959 15.6994 11.4956 16.2909L11.7699 17.9183C11.8055 18.1294 11.956 18.303 12.16 18.3681L13.7323 18.8697C14.3038 19.052 14.245 19.8789 13.6536 19.9786L12.0262 20.2529C11.815 20.2885 11.6414 20.4391 11.5763 20.6431L11.0747 22.2154C10.8924 22.7868 10.0655 22.7281 9.96581 22.1366L9.69151 20.5092C9.65592 20.298 9.50535 20.1245 9.30134 20.0594L7.72904 19.5578C7.15762 19.3755 7.21636 18.5486 7.80781 18.4489L9.43523 18.1746C9.64639 18.139 9.81999 17.9884 9.88507 17.7844L10.3867 16.2121Z" fill="white"/>
<path fill-rule="evenodd" clip-rule="evenodd" d="M10.8972 16.8701L10.539 17.993C10.3958 18.4418 10.0139 18.7731 9.5493 18.8514L8.38707 19.0473L9.50994 19.4055C9.95877 19.5487 10.29 19.9306 10.3683 20.3951L10.5642 21.5574L10.9224 20.4345C11.0656 19.9857 11.4475 19.6544 11.9121 19.5761L13.0743 19.3802L11.9514 19.022C11.5026 18.8788 11.1714 18.4969 11.0931 18.0324L10.8972 16.8701ZM11.4956 16.2909C11.3959 15.6994 10.5689 15.6407 10.3867 16.2121L9.88507 17.7844C9.81999 17.9884 9.64639 18.139 9.43523 18.1746L7.80781 18.4489C7.21636 18.5486 7.15762 19.3755 7.72904 19.5578L9.30134 20.0594C9.50535 20.1245 9.65592 20.298 9.69151 20.5092L9.96581 22.1366C10.0655 22.7281 10.8924 22.7868 11.0747 22.2154L11.5763 20.6431C11.6414 20.4391 11.815 20.2885 12.0262 20.2529L13.6536 19.9786C14.245 19.8789 14.3038 19.052 13.7323 18.8697L12.16 18.3681C11.956 18.303 11.8055 18.1294 11.7699 17.9183L11.4956 16.2909Z" fill="white"/>
<path d="M22.3112 30.6115C22.4479 30.183 23.0681 30.227 23.1429 30.6706L23.3486 31.8912C23.3753 32.0496 23.4882 32.1798 23.6413 32.2286L24.8205 32.6048C25.249 32.7415 25.205 33.3617 24.7614 33.4364L23.5408 33.6422C23.3825 33.6689 23.2523 33.7818 23.2035 33.9348L22.8273 35.114C22.6905 35.5426 22.0703 35.4985 21.9956 35.0549L21.7899 33.8344C21.7632 33.676 21.6502 33.5458 21.4972 33.497L20.318 33.1208C19.8894 32.9841 19.9335 32.3639 20.3771 32.2891L21.5976 32.0834C21.756 32.0567 21.8862 31.9438 21.935 31.7908L22.3112 30.6115Z" fill="white"/>
<path fill-rule="evenodd" clip-rule="evenodd" d="M22.6941 31.1051L22.4254 31.9472C22.3181 32.2838 22.0316 32.5323 21.6832 32.591L20.8115 32.7379L21.6537 33.0066C21.9903 33.114 22.2387 33.4004 22.2975 33.7488L22.4444 34.6205L22.713 33.7784C22.8204 33.4417 23.1069 33.1933 23.4553 33.1346L24.327 32.9876L23.4848 32.719C23.1482 32.6116 22.8997 32.3252 22.841 31.9767L22.6941 31.1051ZM23.1429 30.6706C23.0681 30.227 22.4479 30.183 22.3112 30.6115L21.935 31.7908C21.8862 31.9438 21.756 32.0567 21.5976 32.0834L20.3771 32.2891C19.9335 32.3639 19.8894 32.9841 20.318 33.1208L21.4972 33.497C21.6502 33.5458 21.7632 33.676 21.7899 33.8344L21.9956 35.0549C22.0703 35.4985 22.6905 35.5426 22.8273 35.114L23.2035 33.9348C23.2523 33.7818 23.3825 33.6689 23.5408 33.6422L24.7614 33.4364C25.205 33.3617 25.249 32.7415 24.8205 32.6048L23.6413 32.2286C23.4882 32.1798 23.3753 32.0496 23.3486 31.8912L23.1429 30.6706Z" fill="white"/>
<path d="M26.2043 17.7513C26.171 18.2205 25.7636 18.5739 25.2944 18.5405C24.8251 18.5072 24.4718 18.0998 24.5051 17.6306C24.5384 17.1614 24.9458 16.808 25.4151 16.8413C25.8843 16.8747 26.2376 17.2821 26.2043 17.7513Z" fill="white"/>
<path d="M17.7084 17.1478C17.6751 17.617 17.2677 17.9704 16.7985 17.937C16.3293 17.9037 15.9759 17.4963 16.0093 17.0271C16.0426 16.5579 16.45 16.2045 16.9192 16.2379C17.3884 16.2712 17.7418 16.6786 17.7084 17.1478Z" fill="white"/>
<path d="M9.45866 25.1005C9.42533 25.5697 9.01793 25.9231 8.54872 25.8897C8.07951 25.8564 7.72615 25.449 7.75948 24.9798C7.79282 24.5106 8.20021 24.1572 8.66942 24.1906C9.13863 24.2239 9.49199 24.6313 9.45866 25.1005Z" fill="white"/>
<path d="M29.7552 50.5732L23.863 49.9868C23.5084 49.9515 23.3735 49.5051 23.6492 49.2793L30.1277 43.9735C30.4034 43.7477 30.8145 43.9679 30.7792 44.3225L30.1928 50.2148C30.171 50.4346 29.975 50.595 29.7552 50.5732Z" fill="#A5ED6E"/>
</svg>
