<svg width="19" height="18" viewBox="0 0 19 18" fill="none" xmlns="http://www.w3.org/2000/svg">
<path d="M6.41661 11.0184L1.36096 15.609C1.05072 15.8907 1.05072 16.3474 1.36096 16.6291C1.6712 16.9108 2.1742 16.9108 2.48444 16.6291L7.54008 12.0385C7.85032 11.7568 7.85032 11.3001 7.54008 11.0184C7.22984 10.7367 6.72685 10.7367 6.41661 11.0184Z" fill="#EAEAEA"/>
<path d="M3.30485 13.3315L0.944255 15.475C0.422766 15.9485 0.36762 16.6661 0.821082 17.0779C1.27455 17.4896 2.0649 17.4395 2.58639 16.966L4.94699 14.8226C5.46848 14.3491 5.52363 13.6314 5.07016 13.2197C4.6167 12.8079 3.82634 12.858 3.30485 13.3315Z" fill="#AFAFAF"/>
<path d="M16.3774 10.6544C18.2788 8.16637 17.6189 4.73716 14.9033 2.99506C12.1877 1.25292 8.44486 1.85759 6.54337 4.34559C4.64192 6.83361 5.30188 10.2628 8.01743 12.005C10.733 13.7471 14.4759 13.1424 16.3774 10.6544Z" fill="#E5E5E5"/>
<path d="M16.3774 10.6544C18.2788 8.16638 17.6189 4.73718 14.9033 2.99504C12.1877 1.25293 8.44484 1.85759 6.5434 4.34561C4.64191 6.83362 5.30187 10.2628 8.01745 12.0049C10.733 13.7471 14.4759 13.1424 16.3774 10.6544Z" stroke="#AFAFAF" stroke-width="2.5"/>
</svg>
