<svg width="50" height="60" viewBox="0 0 50 60" fill="none" xmlns="http://www.w3.org/2000/svg">
<rect x="20.4691" y="3.01788" width="31.0507" height="49.7856" rx="2" transform="rotate(18.1548 20.4691 3.01788)" fill="#481F86"/>
<rect x="18.6416" y="2.24481" width="31.2137" height="49.942" rx="2" transform="rotate(18.1548 18.6416 2.24481)" fill="#6F4EA1"/>
<path d="M25.2219 6.69365C25.6641 5.90955 26.5757 5.51752 27.449 5.73585L36.5769 8.01784C37.6243 8.27969 38.2748 9.32555 38.0467 10.3808L30.4867 45.3457C30.2817 46.2937 29.4261 46.958 28.4568 46.9216L6.35056 46.0916C4.85405 46.0354 3.9479 44.4149 4.68356 43.1105L25.2219 6.69365Z" fill="#6238A1"/>
<rect x="3.28241" width="31.2137" height="49.942" rx="3" transform="rotate(3.76847 3.28241 0)" fill="#9069CD"/>
<mask id="mask0_161_460" style="mask-type:alpha" maskUnits="userSpaceOnUse" x="0" y="0" width="35" height="52">
<rect x="3.28235" width="31.2137" height="49.942" rx="2" transform="rotate(3.76847 3.28235 0)" fill="#58CC02"/>
</mask>
<g mask="url(#mask0_161_460)">
<path fill-rule="evenodd" clip-rule="evenodd" d="M15.6836 23.6423C15.6791 23.6481 15.6744 23.6541 15.6695 23.6604C15.5087 23.8686 15.2842 24.2133 15.0043 24.7206C14.4463 25.7317 13.8348 27.0821 13.2149 28.5742C12.633 29.9747 12.0795 31.4124 11.5838 32.7001C11.5564 32.7713 11.5292 32.842 11.5021 32.9122L11.4905 32.9424C11.0114 34.1864 10.5273 35.4435 10.1659 36.1892C9.55079 37.4583 8.55699 38.2843 7.74115 38.8117C6.89881 39.3561 5.96435 39.762 5.10413 40.0766C3.6969 40.5911 2.08044 40.9992 0.781366 41.3271C0.523592 41.3922 0.278316 41.4541 0.0496497 41.5131C-1.76604 41.9814 -3.60593 40.8425 -4.05985 38.9695C-4.51378 37.0964 -3.40984 35.1984 -1.59415 34.7302C-1.29758 34.6537 -1.00485 34.5795 -0.716635 34.5064C0.580372 34.1776 1.78603 33.8719 2.83996 33.4866C3.46704 33.2573 3.88809 33.0514 4.1424 32.887C4.16555 32.872 4.18574 32.8584 4.20319 32.8463C4.41422 32.3681 4.74246 31.5278 5.20338 30.3309C5.23255 30.2552 5.26209 30.1784 5.29197 30.1008C5.78192 28.8281 6.36628 27.3101 6.98531 25.8201C7.63619 24.2534 8.36602 22.6176 9.11416 21.2618C9.4873 20.5856 9.907 19.9015 10.3684 19.3041C10.7822 18.7682 11.453 18.0025 12.397 17.5157C13.7173 16.8347 16.7088 15.6088 19.3773 14.5946C20.7428 14.0756 22.0966 13.5844 23.1989 13.2182C23.7465 13.0363 24.2653 12.8741 24.708 12.7536L24.7167 12.7512C25.0151 12.67 25.6931 12.4855 26.338 12.4855C26.8802 12.4855 27.5072 12.5841 27.9527 12.6615C28.4722 12.7517 29.0598 12.8719 29.6384 12.9984C30.799 13.252 32.0261 13.5535 32.8079 13.7551C34.6236 14.2234 35.7275 16.1214 35.2736 17.9945C34.8197 19.8675 32.9798 21.0063 31.1641 20.5381C30.4397 20.3512 29.2947 20.0701 28.2337 19.8382C27.7016 19.7219 27.2161 19.6236 26.8272 19.5561C26.6789 19.5303 26.5661 19.5129 26.4843 19.5013C26.4693 19.5052 26.4535 19.5095 26.4368 19.514C26.1604 19.5892 25.7702 19.7093 25.2764 19.8733C24.2961 20.199 23.0377 20.6545 21.7204 21.1552C19.2377 22.0987 16.7895 23.1098 15.6836 23.6423ZM4.29718 32.7733C4.29733 32.7733 4.29476 32.7759 4.28904 32.7809C4.29416 32.7758 4.29702 32.7733 4.29718 32.7733ZM15.7691 23.5403C15.7794 23.5291 15.7847 23.5242 15.7847 23.5246C15.7847 23.5249 15.7795 23.5305 15.7691 23.5403Z" fill="#7344BC"/>
</g>
<g clip-path="url(#clip0_161_460)">
<path fill-rule="evenodd" clip-rule="evenodd" d="M7.69677 28.1788C8.60547 27.4182 9.7791 27.0498 10.9595 27.1545L18.0805 27.7863C19.2608 27.891 20.3513 28.4603 21.1119 29.369C21.8725 30.2777 22.241 31.4513 22.1362 32.6317L21.9783 34.412C21.9347 34.9036 21.5008 35.2667 21.0092 35.2231C20.5176 35.1795 20.1544 34.7456 20.198 34.254L20.356 32.4738C20.4188 31.7656 20.1977 31.0614 19.7414 30.5162C19.285 29.9709 18.6308 29.6293 17.9225 29.5665L10.8015 28.9347C10.0933 28.8719 9.38914 29.093 8.84392 29.5494C8.29869 30.0057 7.95709 30.66 7.89426 31.3682L7.73632 33.1484C7.69271 33.64 7.25883 34.0032 6.76723 33.9596C6.27563 33.916 5.91246 33.4821 5.95607 32.9905L6.11401 31.2103C6.21874 30.0299 6.78807 28.9395 7.69677 28.1788Z" fill="white"/>
<path fill-rule="evenodd" clip-rule="evenodd" d="M15.3097 18.5691C13.8349 18.4383 12.5332 19.5278 12.4024 21.0026C12.2716 22.4774 13.361 23.779 14.8359 23.9099C16.3107 24.0407 17.6123 22.9512 17.7431 21.4764C17.874 20.0016 16.7845 18.7 15.3097 18.5691ZM10.6221 20.8447C10.8402 18.3867 13.0096 16.5708 15.4676 16.7889C17.9256 17.007 19.7414 19.1764 19.5234 21.6344C19.3053 24.0924 17.1359 25.9082 14.6779 25.6901C12.2199 25.4721 10.4041 23.3027 10.6221 20.8447Z" fill="white"/>
<path fill-rule="evenodd" clip-rule="evenodd" d="M23.38 29.0459C23.5451 28.5808 24.056 28.3376 24.5211 28.5028C25.454 28.834 26.2505 29.4657 26.7855 30.2987C27.3205 31.1316 27.5638 32.1187 27.477 33.1049L27.319 34.8858C27.2754 35.3774 26.8415 35.7405 26.3499 35.6969C25.8583 35.6533 25.4952 35.2194 25.5388 34.7278L25.6967 32.9483C25.6967 32.9482 25.6967 32.9483 25.6967 32.9483C25.7486 32.3566 25.6027 31.7642 25.2818 31.2645C24.9608 30.7648 24.4829 30.3857 23.9231 30.187C23.458 30.0219 23.2148 29.511 23.38 29.0459Z" fill="white"/>
<path fill-rule="evenodd" clip-rule="evenodd" d="M20.7665 18.0502C20.9307 17.5848 21.4411 17.3406 21.9065 17.5048C22.8421 17.8348 23.6413 18.4669 24.1779 19.3013C24.7146 20.1357 24.9584 21.125 24.8707 22.1132C24.783 23.1015 24.3689 24.0324 23.6937 24.7593C23.0185 25.4862 22.1206 25.9677 21.1415 26.1278C20.6544 26.2075 20.195 25.8773 20.1153 25.3902C20.0356 24.9032 20.3659 24.4437 20.8529 24.3641C21.4404 24.2679 21.9791 23.9791 22.3843 23.5429C22.7894 23.1068 23.0378 22.5482 23.0904 21.9553C23.1431 21.3624 22.9968 20.7688 22.6748 20.2681C22.3528 19.7675 21.8733 19.3883 21.3119 19.1902C20.8465 19.026 20.6023 18.5156 20.7665 18.0502Z" fill="white"/>
</g>
<path d="M29.7395 50.5468L23.8511 49.9608C23.4965 49.9255 23.3615 49.4791 23.6372 49.2533L30.1117 43.9509C30.3874 43.7251 30.7985 43.9454 30.7632 44.3L30.1772 50.1884C30.1553 50.4082 29.9593 50.5687 29.7395 50.5468Z" fill="#7344BC"/>
<defs>
<clipPath id="clip0_161_460">
<rect width="21.4469" height="21.4469" fill="white" transform="translate(7.61444 14.2979) rotate(5.0699)"/>
</clipPath>
</defs>
</svg>
