<svg width="44" height="42" viewBox="0 0 44 42" fill="none" xmlns="http://www.w3.org/2000/svg">
<g clip-path="url(#clip0_2239_636)">
<path d="M38.6912 8.84032L22.5675 3.07121C19.9151 2.12218 16.9823 3.46659 16.0169 6.07403L8.09598 27.4677C7.13059 30.0751 8.49817 32.9582 11.1506 33.9073L27.2743 39.6764C29.9267 40.6254 32.8595 39.281 33.8249 36.6736L41.7458 15.2799C42.7112 12.6724 41.3436 9.78935 38.6912 8.84032Z" fill="#46A302" stroke="white" stroke-width="2.36158"/>
<path d="M2.76562 7.82174C2.76562 5.00339 5.08967 2.71875 7.95652 2.71875H22.7777C25.6446 2.71875 27.9687 5.00339 27.9687 7.82174V28.2907C27.9687 31.109 25.6446 33.3937 22.7778 33.3937H7.95661C5.08967 33.3937 2.76562 31.109 2.76562 28.2907V7.82174Z" fill="#CE82FF"/>
<mask id="mask0_2239_636" style="mask-type:luminance" maskUnits="userSpaceOnUse" x="0" y="0" width="31" height="37">
<path d="M30.4219 0H0V36.25H30.4219V0Z" fill="white"/>
<path d="M2.76562 7.82174C2.76562 5.00339 5.08967 2.71875 7.95652 2.71875H22.7777C25.6446 2.71875 27.9687 5.00339 27.9687 7.82174V28.2907C27.9687 31.109 25.6446 33.3937 22.7778 33.3937H7.95661C5.08967 33.3937 2.76562 31.109 2.76562 28.2907V7.82174Z" fill="black"/>
</mask>
<g mask="url(#mask0_2239_636)">
<path d="M7.95662 4.85895H22.7778V0.578583H7.95662V4.85895ZM25.7917 7.82175V28.2907H30.1459V7.82175H25.7917ZM22.7779 31.2535H7.95671V35.5339H22.7779V31.2535ZM4.94282 28.2907V7.82175H0.588623V28.2907H4.94282ZM7.95671 31.2535C6.29217 31.2535 4.94282 29.927 4.94282 28.2907H0.588623C0.588623 32.291 3.88746 35.5339 7.95671 35.5339V31.2535ZM25.7917 28.2907C25.7917 29.927 24.4423 31.2535 22.7779 31.2535V35.5339C26.8471 35.5339 30.1459 32.291 30.1459 28.2907H25.7917ZM22.7778 4.85895C24.4423 4.85895 25.7917 6.18543 25.7917 7.82175H30.1459C30.1459 3.82144 26.847 0.578583 22.7778 0.578583V4.85895ZM7.95662 0.578583C3.88746 0.578583 0.588623 3.82144 0.588623 7.82175H4.94282C4.94282 6.18543 6.29217 4.85895 7.95662 4.85895V0.578583Z" fill="white"/>
</g>
<path d="M2.76562 7.82345C2.76562 5.00519 5.08967 2.72052 7.95652 2.72052H22.7777C25.6446 2.72052 27.9687 5.00519 27.9687 7.82345V28.2925C27.9687 31.1107 25.6446 33.3954 22.7778 33.3954H7.95661C5.08967 33.3954 2.76562 31.1107 2.76562 28.2925V7.82345Z" fill="#58CC02"/>
<mask id="mask1_2239_636" style="mask-type:alpha" maskUnits="userSpaceOnUse" x="2" y="2" width="26" height="32">
<path d="M2.76562 7.82174C2.76562 5.00339 5.08967 2.71875 7.95652 2.71875H22.7777C25.6446 2.71875 27.9687 5.00339 27.9687 7.82174V28.2907C27.9687 31.109 25.6446 33.3937 22.7778 33.3937H7.95661C5.08967 33.3937 2.76562 31.109 2.76562 28.2907V7.82174Z" fill="#8733BE"/>
</mask>
<g mask="url(#mask1_2239_636)">
<path opacity="0.3" d="M26.6139 4.31276L31.719 9.53165L5.08281 34.7115L-0.0223141 29.4926L26.6139 4.31276Z" fill="white"/>
<path opacity="0.3" d="M29.1841 21.0253L33.6975 25.6393L20.3837 38.2252L15.8703 33.6112L29.1841 21.0253Z" fill="white"/>
</g>
<path d="M16.5998 25.3642C14.4131 25.3642 12.6198 24.7176 11.2198 23.4242C9.83314 22.1176 9.1398 20.3309 9.1398 18.0642C9.1398 15.7976 9.83314 14.0176 11.2198 12.7242C12.6198 11.4176 14.4131 10.7642 16.5998 10.7642C17.9731 10.7642 19.0598 10.9909 19.8598 11.4442C20.1265 11.5909 20.3065 11.7376 20.3998 11.8842C20.5065 12.0309 20.5598 12.2842 20.5598 12.6442V13.7442C20.5598 14.2109 20.3465 14.4442 19.9198 14.4442C19.7998 14.4442 19.3998 14.3442 18.7198 14.1442C18.0531 13.9442 17.4265 13.8442 16.8398 13.8442C15.4798 13.8442 14.4198 14.2176 13.6598 14.9642C12.9131 15.6976 12.5398 16.7309 12.5398 18.0642C12.5398 19.3976 12.9131 20.4376 13.6598 21.1842C14.4198 21.9176 15.4798 22.2842 16.8398 22.2842C17.4265 22.2842 18.0531 22.1842 18.7198 21.9842C19.3998 21.7842 19.7998 21.6842 19.9198 21.6842C20.3465 21.6842 20.5598 21.9176 20.5598 22.3842V23.4842C20.5598 23.8442 20.5065 24.1042 20.3998 24.2642C20.3065 24.4109 20.1265 24.5576 19.8598 24.7042C19.0865 25.1442 17.9998 25.3642 16.5998 25.3642Z" fill="white"/>
</g>
<defs>
<clipPath id="clip0_2239_636">
<rect width="43.4937" height="41.3947" fill="white"/>
</clipPath>
</defs>
</svg>
