<svg width="35" height="27" viewBox="0 0 35 27" fill="none" xmlns="http://www.w3.org/2000/svg">
<g clip-path="url(#clip0_2004_367)">
<mask id="mask0_2004_367" style="mask-type:alpha" maskUnits="userSpaceOnUse" x="0" y="0" width="35" height="27">
<path d="M31.6667 0H3.33333C1.49238 0 0 1.61177 0 3.6V23.4C0 25.3882 1.49238 27 3.33333 27H31.6667C33.5076 27 35 25.3882 35 23.4V3.6C35 1.61177 33.5076 0 31.6667 0Z" fill="white"/>
</mask>
<g mask="url(#mask0_2004_367)">
<path d="M31.6667 0H3.33333C1.49238 0 0 1.61177 0 3.6V23.4C0 25.3882 1.49238 27 3.33333 27H31.6667C33.5076 27 35 25.3882 35 23.4V3.6C35 1.61177 33.5076 0 31.6667 0Z" fill="#FFC800"/>
<path fill-rule="evenodd" clip-rule="evenodd" d="M0 0H35V14.4H0V0Z" fill="#1CB0F6"/>
<path d="M31.6667 0.899902H3.33334C1.95263 0.899902 0.833344 2.10873 0.833344 3.5999V23.3999C0.833344 24.8911 1.95263 26.0999 3.33334 26.0999H31.6667C33.0474 26.0999 34.1667 24.8911 34.1667 23.3999V3.5999C34.1667 2.10873 33.0474 0.899902 31.6667 0.899902Z" stroke="black" stroke-opacity="0.1"/>
</g>
</g>
<defs>
<clipPath id="clip0_2004_367">
<rect width="35" height="27" fill="white"/>
</clipPath>
</defs>
</svg>
